<?xml version="1.0" encoding="utf-8"?>
<svg viewBox="151.476 196.118 197.048 107.763" xmlns="http://www.w3.org/2000/svg">
  <g transform="matrix(1, 0, 0, 1, 0.000008, 11.6185)">
    <title>logo</title>
    <path d="M 208.898 208.79 L 240.055 261.191 L 177.717 261.191 L 208.898 208.79 Z" style="fill: rgb(62, 117, 185); pointer-events: auto;" transform="matrix(0.999997, 0.002351, -0.002351, 0.999997, 0.55304, -0.490442)"/>
    <path d="M 240.934 261.691 L 176.838 261.691 L 208.899 207.812 Z M 178.597 260.691 L 239.177 260.691 L 208.899 209.768 Z" style="fill: none;" transform="matrix(0.999997, 0.002351, -0.002351, 0.999997, 0.552478, -0.490442)"/>
    <path d="M 240.934 261.691 L 176.838 261.691 L 208.899 207.812 Z M 178.597 260.691 L 239.177 260.691 L 208.899 209.768 Z" style="fill: none;" transform="matrix(0.999997, 0.002351, -0.002351, 0.999997, 0.552478, -0.490442)"/>
    <path d="M 250.743 261.191 L 281.899 208.79 L 219.561 208.79 L 250.743 261.191 Z" style="fill: rgb(129, 154, 46); pointer-events: auto;" transform="matrix(0.999997, -0.002351, 0.002351, 0.999997, -0.55177, 0.590116)"/>
    <path d="M 282.779 208.29 L 218.683 208.29 L 250.744 262.169 Z M 220.441 209.29 L 281.021 209.29 L 250.743 260.213 Z" style="fill: none;" transform="matrix(0.999997, -0.002351, 0.002351, 0.999997, -0.552332, 0.590119)"/>
    <path d="M 282.779 208.29 L 218.683 208.29 L 250.744 262.169 Z M 220.441 209.29 L 281.021 209.29 L 250.743 260.213 Z" style="fill: none;" transform="matrix(0.999997, -0.002351, 0.002351, 0.999997, -0.552332, 0.590119)"/>
    <path d="M 292.743 208.79 L 323.899 261.191 L 261.562 261.191 L 292.743 208.79 Z" style="pointer-events: auto; fill: rgb(199, 169, 17);" transform="matrix(0.999997, 0.002351, -0.002351, 0.999997, 0.553272, -0.68756)"/>
    <path d="M 324.779 261.691 L 260.683 261.691 L 292.744 207.812 Z M 262.441 260.691 L 323.021 260.691 L 292.743 209.768 Z" style="fill: none;" transform="matrix(0.999997, 0.002351, -0.002351, 0.999997, 0.55271, -0.687562)"/>
    <path d="M 324.779 261.691 L 260.683 261.691 L 292.744 207.812 Z M 262.441 260.691 L 323.021 260.691 L 292.743 209.768 Z" style="fill: none;" transform="matrix(0.999997, 0.002351, -0.002351, 0.999997, 0.55271, -0.687562)"/>
    <path d="M 181.914 288.123 L 181.914 284.933 C 181.541 284.953 181.184 284.973 180.844 284.993 C 180.511 285.013 180.181 285.036 179.854 285.063 C 179.527 285.09 179.234 285.123 178.974 285.163 C 177.627 285.33 176.674 285.623 176.114 286.043 C 175.554 286.463 175.274 287.063 175.274 287.843 C 175.274 288.496 175.474 288.986 175.874 289.313 C 176.274 289.64 176.801 289.803 177.454 289.803 C 178.354 289.803 179.154 289.65 179.854 289.343 C 180.554 289.036 181.241 288.63 181.914 288.123 Z M 182.164 291.623 L 181.884 290.083 C 181.004 290.59 180.187 290.996 179.434 291.303 C 178.674 291.61 177.857 291.763 176.984 291.763 C 175.731 291.763 174.737 291.46 174.004 290.853 C 173.264 290.246 172.894 289.243 172.894 287.843 C 172.894 287.116 173.081 286.483 173.454 285.943 C 173.827 285.403 174.317 284.95 174.924 284.583 C 175.531 284.223 176.217 283.94 176.984 283.733 C 177.751 283.526 178.534 283.396 179.334 283.343 C 179.667 283.303 180.107 283.27 180.654 283.243 C 181.194 283.216 181.614 283.193 181.914 283.173 C 181.914 282.52 181.894 281.936 181.854 281.423 C 181.814 280.91 181.701 280.47 181.514 280.103 C 181.327 279.743 181.054 279.47 180.694 279.283 C 180.327 279.096 179.807 279.003 179.134 279.003 C 178.594 279.003 178.074 279.033 177.574 279.093 C 177.067 279.16 176.617 279.23 176.224 279.303 C 175.757 279.396 175.327 279.5 174.934 279.613 L 174.494 277.683 C 174.961 277.57 175.464 277.466 176.004 277.373 C 176.471 277.28 177.011 277.2 177.624 277.133 C 178.244 277.073 178.907 277.043 179.614 277.043 C 180.567 277.043 181.337 277.183 181.924 277.463 C 182.511 277.743 182.967 278.12 183.294 278.593 C 183.621 279.066 183.844 279.606 183.964 280.213 C 184.091 280.82 184.154 281.46 184.154 282.133 L 184.154 288.853 C 184.154 289.113 184.157 289.39 184.164 289.683 C 184.171 289.97 184.191 290.253 184.224 290.533 C 184.251 290.813 184.281 291.103 184.314 291.403 L 182.164 291.623 Z M 191.423 291.403 L 186.243 277.323 L 188.703 277.323 L 192.123 287.263 L 192.743 289.473 L 192.763 289.473 L 193.413 287.263 L 197.053 277.323 L 199.403 277.323 L 193.943 291.403 L 191.423 291.403 Z M 201.669 291.403 L 201.669 277.293 L 203.909 277.043 L 203.909 291.403 L 201.669 291.403 Z M 201.299 273.283 C 201.299 272.856 201.446 272.5 201.739 272.213 C 202.026 271.92 202.382 271.773 202.809 271.773 C 203.262 271.773 203.642 271.92 203.949 272.213 C 204.256 272.5 204.409 272.856 204.409 273.283 C 204.409 273.716 204.256 274.076 203.949 274.363 C 203.642 274.656 203.262 274.803 202.809 274.803 C 202.382 274.803 202.026 274.656 201.739 274.363 C 201.446 274.076 201.299 273.716 201.299 273.283 Z M 207.958 291.403 L 207.958 279.863 C 207.958 279.23 207.905 278.466 207.798 277.573 L 209.898 277.293 L 210.198 279.053 C 210.705 278.68 211.201 278.353 211.688 278.073 C 212.175 277.793 212.698 277.55 213.258 277.343 C 213.818 277.143 214.385 277.043 214.958 277.043 C 215.891 277.043 216.631 277.206 217.178 277.533 C 217.718 277.86 218.118 278.413 218.378 279.193 C 219.145 278.653 219.941 278.16 220.768 277.713 C 221.601 277.266 222.465 277.043 223.358 277.043 C 224.051 277.043 224.641 277.13 225.128 277.303 C 225.615 277.483 226.005 277.776 226.298 278.183 C 226.598 278.596 226.815 279.14 226.948 279.813 C 227.075 280.486 227.138 281.326 227.138 282.333 L 227.138 291.403 L 224.898 291.403 L 224.898 282.583 C 224.898 282.023 224.891 281.523 224.878 281.083 C 224.858 280.643 224.791 280.27 224.678 279.963 C 224.565 279.656 224.381 279.42 224.128 279.253 C 223.881 279.086 223.525 279.003 223.058 279.003 C 222.625 279.003 222.218 279.063 221.838 279.183 C 221.451 279.303 221.055 279.476 220.648 279.703 C 220.235 279.923 219.598 280.38 218.738 281.073 L 218.738 291.403 L 216.498 291.403 L 216.498 282.583 C 216.498 282.023 216.491 281.523 216.478 281.083 C 216.458 280.643 216.391 280.27 216.278 279.963 C 216.165 279.656 215.981 279.42 215.728 279.253 C 215.481 279.086 215.125 279.003 214.658 279.003 C 214.171 279.003 213.665 279.103 213.138 279.303 C 212.618 279.51 212.125 279.753 211.658 280.033 C 211.191 280.313 210.705 280.64 210.198 281.013 L 210.198 291.403 L 207.958 291.403 Z M 241.073 289.193 L 241.493 291.063 C 241.067 291.196 240.623 291.31 240.163 291.403 C 239.71 291.496 239.207 291.58 238.653 291.653 C 238.1 291.726 237.527 291.763 236.933 291.763 C 236 291.763 235.13 291.633 234.323 291.373 C 233.523 291.113 232.823 290.693 232.223 290.113 C 231.63 289.533 231.16 288.783 230.813 287.863 C 230.467 286.936 230.293 285.803 230.293 284.463 C 230.293 283.25 230.463 282.18 230.803 281.253 C 231.137 280.326 231.597 279.553 232.183 278.933 C 232.77 278.306 233.46 277.833 234.253 277.513 C 235.047 277.2 235.91 277.043 236.843 277.043 C 237.763 277.043 238.557 277.22 239.223 277.573 C 239.897 277.926 240.453 278.406 240.893 279.013 C 241.333 279.62 241.66 280.33 241.873 281.143 C 242.087 281.956 242.193 282.81 242.193 283.703 L 241.773 284.933 L 232.733 284.933 C 232.733 285.513 232.807 286.093 232.953 286.673 C 233.107 287.253 233.363 287.776 233.723 288.243 C 234.09 288.71 234.567 289.086 235.153 289.373 C 235.74 289.66 236.473 289.803 237.353 289.803 C 237.913 289.803 238.427 289.773 238.893 289.713 C 239.36 289.646 239.767 289.57 240.113 289.483 C 240.453 289.403 240.773 289.306 241.073 289.193 Z M 232.813 283.143 L 239.873 283.143 C 239.873 283.01 239.843 282.72 239.783 282.273 C 239.73 281.826 239.6 281.36 239.393 280.873 C 239.187 280.386 238.87 279.953 238.443 279.573 C 238.017 279.193 237.447 279.003 236.733 279.003 C 235.953 279.003 235.31 279.166 234.803 279.493 C 234.297 279.82 233.897 280.206 233.603 280.653 C 233.303 281.1 233.097 281.556 232.983 282.023 C 232.87 282.49 232.813 282.863 232.813 283.143 Z M 245.245 291.403 L 245.245 270.433 L 247.485 270.183 L 247.485 279.083 C 248.045 278.71 248.598 278.383 249.145 278.103 C 249.698 277.823 250.265 277.576 250.845 277.363 C 251.418 277.15 251.978 277.043 252.525 277.043 C 253.285 277.043 253.921 277.13 254.435 277.303 C 254.948 277.483 255.365 277.776 255.685 278.183 C 256.005 278.596 256.235 279.14 256.375 279.813 C 256.515 280.486 256.585 281.326 256.585 282.333 L 256.585 291.403 L 254.345 291.403 L 254.345 282.583 C 254.345 282.023 254.335 281.523 254.315 281.083 C 254.295 280.643 254.215 280.27 254.075 279.963 C 253.935 279.656 253.721 279.42 253.435 279.253 C 253.141 279.086 252.735 279.003 252.215 279.003 C 251.728 279.003 251.205 279.11 250.645 279.323 C 250.085 279.536 249.551 279.783 249.045 280.063 C 248.545 280.343 248.025 280.67 247.485 281.043 L 247.485 291.403 L 245.245 291.403 Z M 270.515 289.193 L 270.935 291.063 C 270.509 291.196 270.065 291.31 269.605 291.403 C 269.152 291.496 268.649 291.58 268.095 291.653 C 267.542 291.726 266.969 291.763 266.375 291.763 C 265.442 291.763 264.572 291.633 263.765 291.373 C 262.965 291.113 262.265 290.693 261.665 290.113 C 261.072 289.533 260.602 288.783 260.255 287.863 C 259.909 286.936 259.735 285.803 259.735 284.463 C 259.735 283.25 259.905 282.18 260.245 281.253 C 260.579 280.326 261.039 279.553 261.625 278.933 C 262.212 278.306 262.902 277.833 263.695 277.513 C 264.489 277.2 265.352 277.043 266.285 277.043 C 267.205 277.043 267.999 277.22 268.665 277.573 C 269.339 277.926 269.895 278.406 270.335 279.013 C 270.775 279.62 271.102 280.33 271.315 281.143 C 271.529 281.956 271.635 282.81 271.635 283.703 L 271.215 284.933 L 262.175 284.933 C 262.175 285.513 262.249 286.093 262.395 286.673 C 262.549 287.253 262.805 287.776 263.165 288.243 C 263.532 288.71 264.009 289.086 264.595 289.373 C 265.182 289.66 265.915 289.803 266.795 289.803 C 267.355 289.803 267.869 289.773 268.335 289.713 C 268.802 289.646 269.209 289.57 269.555 289.483 C 269.895 289.403 270.215 289.306 270.515 289.193 Z M 262.255 283.143 L 269.315 283.143 C 269.315 283.01 269.285 282.72 269.225 282.273 C 269.172 281.826 269.042 281.36 268.835 280.873 C 268.629 280.386 268.312 279.953 267.885 279.573 C 267.459 279.193 266.889 279.003 266.175 279.003 C 265.395 279.003 264.752 279.166 264.245 279.493 C 263.739 279.82 263.339 280.206 263.045 280.653 C 262.745 281.1 262.539 281.556 262.425 282.023 C 262.312 282.49 262.255 282.863 262.255 283.143 Z M 274.707 291.403 L 274.707 280.123 C 274.727 279.73 274.68 278.88 274.567 277.573 L 276.647 277.293 L 276.947 279.083 C 277.507 278.71 278.064 278.383 278.617 278.103 C 279.17 277.823 279.734 277.576 280.307 277.363 C 280.887 277.15 281.447 277.043 281.987 277.043 C 282.754 277.043 283.394 277.13 283.907 277.303 C 284.42 277.483 284.837 277.776 285.157 278.183 C 285.47 278.596 285.697 279.14 285.837 279.813 C 285.977 280.486 286.047 281.326 286.047 282.333 L 286.047 291.403 L 283.807 291.403 L 283.807 282.583 C 283.807 282.023 283.8 281.523 283.787 281.083 C 283.767 280.643 283.687 280.27 283.547 279.963 C 283.407 279.656 283.19 279.42 282.897 279.253 C 282.61 279.086 282.207 279.003 281.687 279.003 C 281.2 279.003 280.687 279.11 280.147 279.323 C 279.6 279.536 279.067 279.783 278.547 280.063 C 278.027 280.343 277.494 280.67 276.947 281.043 L 276.947 291.403 L 274.707 291.403 Z M 292.286 291.403 L 288.476 277.323 L 290.836 277.323 L 292.486 283.673 C 292.632 284.213 292.766 284.786 292.886 285.393 C 293.012 286 293.129 286.566 293.236 287.093 C 293.349 287.706 293.472 288.313 293.606 288.913 L 293.636 288.913 C 293.762 288.313 293.909 287.706 294.076 287.093 C 294.229 286.566 294.389 286 294.556 285.393 C 294.722 284.786 294.889 284.213 295.056 283.673 L 297.046 277.323 L 300.046 277.323 L 301.636 283.673 C 301.769 284.213 301.906 284.786 302.046 285.393 C 302.186 286 302.302 286.566 302.396 287.093 C 302.509 287.706 302.622 288.313 302.736 288.913 L 302.756 288.913 C 302.929 288.293 303.109 287.676 303.296 287.063 C 303.442 286.543 303.609 285.98 303.796 285.373 C 303.982 284.766 304.159 284.2 304.326 283.673 L 306.286 277.323 L 308.616 277.323 L 303.996 291.403 L 301.496 291.403 L 299.486 283.673 C 299.299 282.966 299.146 282.326 299.026 281.753 C 298.899 281.186 298.789 280.706 298.696 280.313 C 298.602 279.846 298.519 279.436 298.446 279.083 L 298.396 279.083 C 298.316 279.436 298.222 279.846 298.116 280.313 C 298.022 280.706 297.889 281.186 297.716 281.753 C 297.549 282.326 297.362 282.966 297.156 283.673 L 294.776 291.403 L 292.286 291.403 Z M 318.686 288.123 L 318.686 284.933 C 318.313 284.953 317.956 284.973 317.616 284.993 C 317.283 285.013 316.953 285.036 316.626 285.063 C 316.299 285.09 316.006 285.123 315.746 285.163 C 314.399 285.33 313.446 285.623 312.886 286.043 C 312.326 286.463 312.046 287.063 312.046 287.843 C 312.046 288.496 312.246 288.986 312.646 289.313 C 313.046 289.64 313.573 289.803 314.226 289.803 C 315.126 289.803 315.926 289.65 316.626 289.343 C 317.326 289.036 318.013 288.63 318.686 288.123 Z M 318.936 291.623 L 318.656 290.083 C 317.776 290.59 316.959 290.996 316.206 291.303 C 315.446 291.61 314.629 291.763 313.756 291.763 C 312.503 291.763 311.509 291.46 310.776 290.853 C 310.036 290.246 309.666 289.243 309.666 287.843 C 309.666 287.116 309.853 286.483 310.226 285.943 C 310.599 285.403 311.089 284.95 311.696 284.583 C 312.303 284.223 312.989 283.94 313.756 283.733 C 314.523 283.526 315.306 283.396 316.106 283.343 C 316.439 283.303 316.879 283.27 317.426 283.243 C 317.966 283.216 318.386 283.193 318.686 283.173 C 318.686 282.52 318.666 281.936 318.626 281.423 C 318.586 280.91 318.473 280.47 318.286 280.103 C 318.099 279.743 317.826 279.47 317.466 279.283 C 317.099 279.096 316.579 279.003 315.906 279.003 C 315.366 279.003 314.846 279.033 314.346 279.093 C 313.839 279.16 313.389 279.23 312.996 279.303 C 312.529 279.396 312.099 279.5 311.706 279.613 L 311.266 277.683 C 311.733 277.57 312.236 277.466 312.776 277.373 C 313.243 277.28 313.783 277.2 314.396 277.133 C 315.016 277.073 315.679 277.043 316.386 277.043 C 317.339 277.043 318.109 277.183 318.696 277.463 C 319.283 277.743 319.739 278.12 320.066 278.593 C 320.393 279.066 320.616 279.606 320.736 280.213 C 320.863 280.82 320.926 281.46 320.926 282.133 L 320.926 288.853 C 320.926 289.113 320.929 289.39 320.936 289.683 C 320.943 289.97 320.963 290.253 320.996 290.533 C 321.023 290.813 321.053 291.103 321.086 291.403 L 318.936 291.623 Z M 324.867 291.403 L 324.867 270.433 L 327.107 270.183 L 327.107 291.403 L 324.867 291.403 Z" style="fill: rgb(51, 51, 51); white-space: pre;"/>
    <path d="M 180.055 289.801 C 179.304 290.13 178.401 290.303 177.454 290.303 C 176.727 290.303 176.03 290.087 175.558 289.7 C 175.065 289.298 174.774 288.59 174.774 287.843 C 174.774 286.957 175.16 286.134 175.814 285.643 C 176.442 285.172 177.519 284.844 178.905 284.668 C 179.175 284.626 179.478 284.592 179.813 284.565 C 180.143 284.537 180.479 284.514 180.815 284.494 C 181.155 284.474 181.514 284.454 181.887 284.434 L 182.414 284.405 L 182.414 288.373 L 182.215 288.522 C 181.519 289.045 180.782 289.482 180.055 289.801 Z M 181.414 287.871 L 181.414 285.461 C 181.229 285.471 181.213 285.472 180.874 285.492 C 180.543 285.512 180.219 285.535 179.895 285.561 C 179.576 285.588 179.3 285.619 179.05 285.657 C 177.746 285.815 176.906 286.074 176.414 286.443 C 175.948 286.792 175.774 287.169 175.774 287.843 C 175.774 288.402 175.883 288.674 176.19 288.926 C 176.518 289.193 176.875 289.303 177.454 289.303 C 178.307 289.303 179.004 289.17 179.653 288.885 C 180.326 288.59 180.833 288.291 181.414 287.871 Z M 181.517 290.86 C 180.849 291.221 180.391 291.452 179.621 291.767 C 178.814 292.088 177.903 292.263 176.984 292.263 C 175.658 292.263 174.506 291.892 173.686 291.239 C 172.871 290.525 172.394 289.33 172.394 287.843 C 172.394 287.045 172.625 286.263 173.043 285.659 C 173.447 285.074 174.022 284.55 174.669 284.153 C 175.308 283.777 176.056 283.466 176.854 283.25 C 177.645 283.037 178.467 282.901 179.287 282.845 C 179.632 282.804 180.076 282.771 180.629 282.744 C 181.168 282.717 181.187 282.715 181.41 282.703 C 181.403 282.249 181.395 281.964 181.356 281.462 C 181.319 280.992 181.237 280.648 181.07 280.332 C 180.928 280.035 180.763 279.869 180.465 279.727 C 180.168 279.564 179.763 279.503 179.134 279.503 C 178.608 279.503 178.12 279.531 177.637 279.589 C 177.137 279.655 176.703 279.722 176.318 279.794 C 175.863 279.885 175.455 279.983 175.072 280.094 L 174.564 280.24 L 173.897 277.313 L 174.376 277.197 C 174.852 277.082 175.367 276.976 175.913 276.881 C 176.392 276.786 176.953 276.704 177.576 276.635 C 178.209 276.574 178.896 276.543 179.614 276.543 C 180.612 276.543 181.493 276.704 182.139 277.012 C 182.781 277.318 183.34 277.78 183.705 278.309 C 184.062 278.825 184.319 279.457 184.453 280.111 C 184.584 280.744 184.653 281.436 184.654 282.133 L 184.654 288.853 C 184.654 289.11 184.657 289.381 184.664 289.671 C 184.67 289.946 184.69 290.217 184.722 290.485 C 184.749 290.763 184.778 291.05 184.811 291.348 L 184.866 291.849 L 181.755 292.168 Z M 183.764 290.957 C 183.751 290.831 183.754 290.866 183.727 290.586 C 183.693 290.296 183.672 289.994 183.664 289.695 C 183.657 289.399 183.654 289.116 183.654 288.853 L 183.654 282.133 C 183.655 281.485 183.597 280.896 183.475 280.315 C 183.369 279.755 183.18 279.307 182.883 278.877 C 182.594 278.46 182.241 278.168 181.709 277.914 C 181.181 277.663 180.522 277.543 179.614 277.543 C 178.918 277.543 178.282 277.571 177.675 277.63 C 177.073 277.696 176.556 277.772 176.102 277.863 C 175.57 277.955 175.408 277.99 175.092 278.059 L 175.306 278.996 C 175.567 278.931 175.649 278.908 176.126 278.813 C 176.527 278.738 176.996 278.665 177.508 278.597 C 178.024 278.536 178.58 278.503 179.134 278.503 C 179.851 278.503 180.485 278.627 180.921 278.838 C 181.343 279.07 181.726 279.451 181.958 279.873 C 182.164 280.291 182.309 280.828 182.352 281.384 C 182.393 281.908 182.414 282.511 182.414 283.173 L 182.414 283.641 L 181.947 283.672 C 181.644 283.692 181.22 283.715 180.679 283.742 C 180.138 283.769 179.716 283.801 179.394 283.839 C 178.618 283.89 177.857 284.015 177.114 284.216 C 176.378 284.414 175.754 284.669 175.179 285.013 C 174.612 285.35 174.207 285.732 173.865 286.227 C 173.537 286.703 173.394 287.187 173.394 287.843 C 173.394 289.156 173.657 289.966 174.321 290.466 C 174.968 291.027 175.804 291.263 176.984 291.263 C 177.811 291.263 178.534 291.132 179.247 290.839 C 179.983 290.54 180.768 290.15 181.634 289.65 L 182.249 289.295 L 182.573 291.079 Z M 185.526 276.823 L 189.06 276.823 L 189.176 277.16 L 192.604 287.128 L 192.765 287.699 L 192.943 287.091 L 196.704 276.823 L 200.133 276.823 L 194.285 291.903 L 191.074 291.903 Z M 193.601 290.903 L 198.673 277.823 L 197.402 277.823 L 193.888 287.42 L 193.137 289.973 L 192.364 289.973 L 191.645 287.412 L 188.346 277.823 L 186.96 277.823 L 191.772 290.903 Z M 201.169 276.846 L 204.409 276.484 L 204.409 291.903 L 201.169 291.903 Z M 203.409 290.903 L 203.409 277.602 L 202.169 277.74 L 202.169 290.903 Z M 200.799 273.283 C 200.799 272.761 201.038 272.23 201.386 271.86 C 201.756 271.51 202.287 271.273 202.809 271.273 C 203.352 271.273 203.903 271.505 204.292 271.849 C 204.657 272.22 204.909 272.757 204.909 273.283 C 204.909 273.814 204.658 274.355 204.292 274.727 C 203.903 275.071 203.352 275.303 202.809 275.303 C 202.287 275.303 201.756 275.064 201.386 274.716 C 201.036 274.345 200.799 273.811 200.799 273.283 Z M 202.089 274.006 C 202.293 274.243 202.477 274.303 202.809 274.303 C 203.172 274.303 203.379 274.242 203.604 274.001 C 203.851 273.799 203.909 273.618 203.909 273.283 C 203.909 272.955 203.856 272.781 203.608 272.578 C 203.383 272.338 203.172 272.273 202.809 272.273 C 202.477 272.273 202.3 272.326 202.096 272.563 C 201.859 272.767 201.799 272.951 201.799 273.283 C 201.799 273.621 201.852 273.803 202.089 274.006 Z M 207.458 279.863 C 207.459 279.247 207.407 278.513 207.302 277.632 L 207.243 277.143 L 210.31 276.734 L 210.558 278.189 C 210.855 277.99 210.939 277.927 211.439 277.64 C 211.945 277.349 212.511 277.087 213.09 276.872 C 213.69 276.661 214.342 276.543 214.958 276.543 C 215.945 276.543 216.815 276.749 217.437 277.105 C 218.05 277.5 218.3 277.865 218.596 278.438 C 219.376 277.889 219.692 277.727 220.532 277.272 C 221.42 276.804 222.403 276.543 223.358 276.543 C 224.087 276.543 224.767 276.649 225.301 276.834 C 225.852 277.049 226.358 277.43 226.703 277.89 C 227.033 278.357 227.293 279.003 227.439 279.72 C 227.57 280.421 227.637 281.307 227.638 282.333 L 227.638 291.903 L 224.398 291.903 L 224.398 282.583 C 224.398 282.026 224.391 281.536 224.378 281.1 C 224.362 280.696 224.307 280.402 224.209 280.136 C 224.122 279.9 224.042 279.779 223.848 279.667 C 223.684 279.537 223.468 279.503 223.058 279.503 C 222.661 279.503 222.327 279.549 221.986 279.661 C 221.625 279.771 221.268 279.928 220.883 280.144 C 220.498 280.347 219.989 280.715 219.238 281.313 L 219.238 291.903 L 215.998 291.903 L 215.998 282.583 C 215.998 282.027 215.991 281.536 215.978 281.1 C 215.962 280.696 215.907 280.402 215.809 280.136 C 215.722 279.9 215.641 279.779 215.448 279.667 C 215.284 279.537 215.068 279.503 214.658 279.503 C 214.219 279.503 213.805 279.581 213.321 279.768 C 212.819 279.967 212.364 280.192 211.915 280.462 C 211.459 280.735 211.121 280.963 210.698 281.267 L 210.698 291.903 L 207.458 291.903 Z M 209.698 290.903 L 209.698 280.76 L 209.902 280.61 C 210.417 280.231 210.923 279.891 211.401 279.604 C 211.885 279.314 212.415 279.053 212.953 278.838 C 213.52 278.627 214.123 278.503 214.658 278.503 C 215.182 278.503 215.676 278.634 216.006 278.838 C 216.317 279.06 216.608 279.412 216.747 279.79 C 216.875 280.138 216.954 280.587 216.977 281.06 C 216.991 281.504 216.998 282.02 216.998 282.583 L 216.998 290.903 L 218.238 290.903 L 218.238 280.834 L 218.424 280.684 C 219.295 279.982 219.967 279.502 220.408 279.265 C 220.835 279.028 221.275 278.836 221.688 278.706 C 222.107 278.577 222.589 278.503 223.058 278.503 C 223.582 278.503 224.076 278.635 224.406 278.838 C 224.717 279.06 225.008 279.412 225.147 279.79 C 225.275 280.138 225.354 280.587 225.377 281.06 C 225.391 281.504 225.398 282.02 225.398 282.583 L 225.398 290.903 L 226.638 290.903 L 226.638 282.333 C 226.639 281.345 226.58 280.551 226.457 279.906 C 226.337 279.277 226.164 278.836 225.893 278.477 C 225.653 278.124 225.379 277.918 224.956 277.772 C 224.517 277.612 224.015 277.543 223.358 277.543 C 222.527 277.543 221.782 277.728 221.004 278.154 C 220.19 278.593 219.421 279.07 218.666 279.602 L 218.107 279.995 L 217.904 279.351 C 217.678 278.639 217.387 278.221 216.92 277.961 C 216.448 277.664 215.837 277.543 214.958 277.543 C 214.428 277.543 213.946 277.625 213.426 277.814 C 212.885 278.013 212.405 278.237 211.937 278.506 C 211.463 278.779 210.991 279.09 210.494 279.456 L 209.841 279.937 L 209.486 277.852 L 208.349 278.004 C 208.421 278.707 208.457 279.213 208.458 279.863 L 208.458 290.903 Z M 242.082 291.403 L 241.642 291.54 C 241.204 291.677 240.736 291.797 240.264 291.893 C 239.801 291.987 239.281 292.074 238.718 292.149 C 238.149 292.223 237.543 292.263 236.933 292.263 C 235.963 292.263 235.015 292.118 234.168 291.849 C 233.317 291.565 232.519 291.085 231.873 290.47 C 231.243 289.844 230.714 289.002 230.345 288.038 C 229.986 287.061 229.793 285.841 229.793 284.463 C 229.793 283.211 229.981 282.056 230.333 281.082 C 230.687 280.113 231.2 279.254 231.819 278.59 C 232.447 277.928 233.229 277.393 234.07 277.048 C 234.911 276.721 235.865 276.543 236.843 276.543 C 237.817 276.543 238.728 276.755 239.456 277.131 C 240.178 277.516 240.824 278.066 241.298 278.72 C 241.766 279.366 242.129 280.162 242.357 281.016 C 242.577 281.862 242.691 282.779 242.693 283.703 L 242.693 283.786 L 242.131 285.433 L 233.251 285.433 C 233.279 285.804 233.296 285.994 233.436 286.545 C 233.573 287.079 233.785 287.512 234.117 287.935 C 234.442 288.36 234.832 288.665 235.373 288.924 C 235.898 289.19 236.521 289.303 237.353 289.303 C 237.898 289.303 238.378 289.276 238.825 289.218 C 239.28 289.152 239.668 289.08 239.998 288.996 C 240.323 288.92 240.612 288.833 240.897 288.725 L 241.435 288.521 Z M 240.231 289.969 C 239.871 290.059 239.441 290.139 238.964 290.208 C 238.481 290.27 237.928 290.303 237.353 290.303 C 236.425 290.303 235.582 290.13 234.933 289.822 C 234.303 289.507 233.739 289.061 233.33 288.552 C 232.943 288.042 232.641 287.427 232.47 286.801 C 232.318 286.192 232.235 285.545 232.233 284.933 L 232.231 284.433 L 241.415 284.433 L 241.693 283.62 C 241.689 282.79 241.597 282.05 241.389 281.27 C 241.191 280.498 240.9 279.874 240.488 279.306 C 240.082 278.746 239.618 278.337 238.991 278.016 C 238.388 277.686 237.709 277.543 236.843 277.543 C 235.955 277.543 235.186 277.678 234.439 277.977 C 233.694 278.272 233.094 278.683 232.548 279.275 C 231.995 279.851 231.587 280.539 231.273 281.422 C 230.946 282.303 230.793 283.289 230.793 284.463 C 230.793 285.765 230.948 286.81 231.281 287.687 C 231.606 288.562 232.016 289.221 232.572 289.755 C 233.126 290.299 233.729 290.661 234.477 290.897 C 235.244 291.148 236.037 291.263 236.933 291.263 C 237.511 291.263 238.051 291.229 238.588 291.157 C 239.133 291.086 239.619 291.005 240.062 290.913 C 240.51 290.823 240.631 290.789 240.902 290.715 L 240.706 289.842 C 240.551 289.888 240.585 289.885 240.231 289.969 Z M 232.497 281.904 C 232.626 281.394 232.867 280.86 233.186 280.377 C 233.515 279.888 233.988 279.43 234.532 279.073 C 235.113 278.714 235.892 278.503 236.733 278.503 C 237.526 278.503 238.262 278.769 238.776 279.2 C 239.238 279.619 239.619 280.141 239.853 280.678 C 240.071 281.195 240.218 281.724 240.279 282.207 C 240.34 282.662 240.372 282.984 240.373 283.143 L 240.377 283.643 L 232.308 283.643 L 232.313 283.143 C 232.316 282.825 232.38 282.392 232.497 281.904 Z M 233.362 282.643 L 239.327 282.643 C 239.316 282.554 239.347 282.779 239.287 282.34 C 239.242 281.93 239.129 281.525 238.933 281.069 C 238.755 280.632 238.502 280.287 238.111 279.947 C 237.772 279.617 237.368 279.503 236.733 279.503 C 236.014 279.503 235.507 279.618 235.074 279.913 C 234.606 280.21 234.279 280.523 234.021 280.928 C 233.741 281.338 233.568 281.718 233.469 282.142 C 233.36 282.588 233.387 282.496 233.362 282.643 Z M 244.745 269.986 L 247.985 269.624 L 247.985 278.176 C 248.298 277.989 248.359 277.944 248.919 277.657 C 249.485 277.371 250.077 277.113 250.671 276.894 C 251.284 276.67 251.931 276.543 252.525 276.543 C 253.319 276.543 254.041 276.647 254.601 276.831 C 255.175 277.043 255.707 277.42 256.08 277.877 C 256.433 278.346 256.715 278.991 256.865 279.711 C 257.011 280.414 257.084 281.305 257.085 282.333 L 257.085 291.903 L 253.845 291.903 L 253.845 282.583 C 253.845 282.028 253.835 281.539 253.816 281.106 C 253.797 280.707 253.738 280.429 253.62 280.17 C 253.512 279.933 253.411 279.805 253.186 279.686 C 252.965 279.547 252.685 279.503 252.215 279.503 C 251.778 279.503 251.345 279.592 250.823 279.79 C 250.279 279.997 249.778 280.228 249.288 280.5 C 248.799 280.773 248.436 281.002 247.985 281.307 L 247.985 291.903 L 244.745 291.903 Z M 246.985 290.903 L 246.985 280.781 L 247.201 280.632 C 247.75 280.253 248.29 279.913 248.801 279.627 C 249.323 279.339 249.891 279.075 250.467 278.856 C 251.065 278.628 251.678 278.503 252.215 278.503 C 252.785 278.503 253.315 278.624 253.682 278.818 C 254.027 279.033 254.358 279.379 254.53 279.756 C 254.692 280.111 254.793 280.579 254.814 281.06 C 254.835 281.507 254.845 282.018 254.845 282.583 L 254.845 290.903 L 256.085 290.903 L 256.085 282.333 C 256.086 281.347 256.019 280.558 255.885 279.915 C 255.755 279.289 255.578 278.848 255.291 278.491 C 255.024 278.135 254.722 277.924 254.27 277.775 C 253.803 277.614 253.251 277.543 252.525 277.543 C 252.025 277.543 251.552 277.63 251.019 277.832 C 250.453 278.039 249.911 278.275 249.372 278.549 C 248.839 278.821 248.311 279.133 247.762 279.499 L 246.985 280.017 L 246.985 270.742 L 245.745 270.88 L 245.745 290.903 Z M 271.524 291.403 L 271.084 291.54 C 270.646 291.677 270.177 291.797 269.705 291.893 C 269.243 291.988 268.723 292.074 268.16 292.149 C 267.591 292.223 266.985 292.263 266.375 292.263 C 265.405 292.263 264.457 292.118 263.61 291.849 C 262.759 291.565 261.961 291.085 261.315 290.47 C 260.685 289.844 260.156 289.002 259.787 288.038 C 259.428 287.061 259.235 285.841 259.235 284.463 C 259.235 283.211 259.423 282.056 259.775 281.082 C 260.129 280.112 260.642 279.254 261.261 278.59 C 261.889 277.928 262.671 277.393 263.512 277.048 C 264.353 276.721 265.307 276.543 266.285 276.543 C 267.259 276.543 268.17 276.755 268.898 277.131 C 269.619 277.516 270.266 278.066 270.74 278.72 C 271.208 279.366 271.571 280.162 271.799 281.016 C 272.019 281.862 272.133 282.779 272.135 283.703 L 272.135 283.786 L 271.573 285.433 L 262.693 285.433 C 262.721 285.804 262.738 285.994 262.878 286.545 C 263.015 287.079 263.225 287.51 263.558 287.934 C 263.883 288.359 264.274 288.665 264.815 288.924 C 265.34 289.19 265.963 289.303 266.795 289.303 C 267.34 289.303 267.82 289.276 268.267 289.218 C 268.724 289.152 269.11 289.08 269.44 288.996 C 269.765 288.92 270.054 288.833 270.339 288.725 L 270.877 288.521 Z M 269.673 289.969 C 269.313 290.059 268.883 290.139 268.406 290.208 C 267.923 290.27 267.37 290.303 266.795 290.303 C 265.867 290.303 265.024 290.13 264.375 289.822 C 263.745 289.507 263.181 289.061 262.772 288.552 C 262.385 288.042 262.083 287.427 261.912 286.801 C 261.76 286.192 261.677 285.545 261.675 284.933 L 261.673 284.433 L 270.857 284.433 L 271.135 283.62 C 271.131 282.79 271.039 282.05 270.831 281.27 C 270.633 280.498 270.342 279.874 269.93 279.306 C 269.524 278.746 269.06 278.337 268.433 278.016 C 267.83 277.686 267.151 277.543 266.285 277.543 C 265.397 277.543 264.625 277.679 263.878 277.978 C 263.133 278.273 262.536 278.683 261.99 279.275 C 261.437 279.851 261.029 280.539 260.715 281.422 C 260.388 282.303 260.235 283.289 260.235 284.463 C 260.235 285.765 260.39 286.81 260.723 287.687 C 261.048 288.562 261.458 289.221 262.014 289.755 C 262.568 290.299 263.171 290.661 263.919 290.897 C 264.686 291.148 265.479 291.263 266.375 291.263 C 266.953 291.263 267.493 291.229 268.03 291.157 C 268.575 291.086 269.061 291.005 269.504 290.913 C 269.952 290.823 270.073 290.789 270.344 290.715 L 270.148 289.842 C 269.993 289.888 270.029 289.885 269.673 289.969 Z M 261.939 281.904 C 262.068 281.394 262.309 280.86 262.628 280.377 C 262.957 279.888 263.43 279.43 263.974 279.073 C 264.555 278.714 265.334 278.503 266.175 278.503 C 266.968 278.503 267.704 278.769 268.218 279.2 C 268.68 279.619 269.061 280.141 269.295 280.678 C 269.513 281.195 269.66 281.724 269.721 282.207 C 269.782 282.662 269.814 282.984 269.815 283.143 L 269.819 283.643 L 261.751 283.643 L 261.755 283.143 C 261.758 282.825 261.822 282.392 261.939 281.904 Z M 262.804 282.643 L 268.769 282.643 C 268.758 282.554 268.789 282.779 268.729 282.34 C 268.684 281.93 268.571 281.525 268.375 281.069 C 268.197 280.632 267.944 280.287 267.553 279.947 C 267.214 279.617 266.81 279.503 266.175 279.503 C 265.456 279.503 264.949 279.618 264.516 279.913 C 264.048 280.21 263.721 280.523 263.463 280.928 C 263.183 281.338 263.01 281.718 262.911 282.141 C 262.802 282.586 262.829 282.496 262.804 282.643 Z M 274.207 291.403 L 274.208 280.098 C 274.228 279.731 274.181 278.915 274.069 277.616 L 274.028 277.141 L 277.06 276.733 L 277.315 278.256 C 277.676 278.038 277.824 277.944 278.391 277.657 C 278.957 277.371 279.548 277.112 280.135 276.894 C 280.754 276.67 281.4 276.543 281.987 276.543 C 282.788 276.543 283.513 276.647 284.073 276.831 C 284.647 277.043 285.183 277.424 285.556 277.881 C 285.9 278.349 286.177 278.992 286.327 279.711 C 286.473 280.414 286.546 281.305 286.547 282.333 L 286.547 291.903 L 283.307 291.903 L 283.307 282.583 C 283.307 282.027 283.3 281.534 283.287 281.098 C 283.272 280.703 283.21 280.429 283.092 280.17 C 282.984 279.934 282.878 279.804 282.646 279.685 C 282.434 279.547 282.157 279.503 281.687 279.503 C 281.251 279.503 280.828 279.588 280.328 279.789 C 279.796 279.996 279.291 280.23 278.784 280.503 C 278.276 280.777 277.905 281.005 277.447 281.309 L 277.447 291.903 L 274.207 291.903 Z M 276.447 290.903 L 276.447 280.779 L 276.665 280.63 C 277.222 280.25 277.778 279.909 278.31 279.623 C 278.843 279.336 279.404 279.076 279.966 278.857 C 280.546 278.632 281.149 278.503 281.687 278.503 C 282.257 278.503 282.784 278.625 283.147 278.82 C 283.499 279.035 283.83 279.378 284.002 279.756 C 284.164 280.111 284.261 280.579 284.286 281.06 C 284.3 281.504 284.307 282.019 284.307 282.583 L 284.307 290.903 L 285.547 290.903 L 285.547 282.333 C 285.548 281.347 285.481 280.558 285.347 279.915 C 285.217 279.288 285.044 278.848 284.762 278.49 C 284.495 278.134 284.194 277.924 283.742 277.775 C 283.276 277.614 282.72 277.543 281.987 277.543 C 281.494 277.543 281.02 277.63 280.479 277.832 C 279.92 278.04 279.383 278.275 278.843 278.549 C 278.304 278.822 277.772 279.134 277.224 279.499 L 276.582 279.928 L 276.234 277.853 L 275.105 278.005 C 275.189 279.055 275.225 279.709 275.207 280.134 L 275.207 290.903 Z M 287.823 276.823 L 291.223 276.823 L 292.969 283.545 C 293.117 284.093 293.254 284.679 293.376 285.294 C 293.479 285.789 293.577 286.262 293.667 286.706 C 293.798 286.253 293.933 285.772 294.074 285.261 C 294.241 284.65 294.411 284.067 294.579 283.523 L 296.679 276.823 L 300.436 276.823 L 300.531 277.202 L 302.122 283.553 C 302.255 284.095 302.393 284.672 302.533 285.281 C 302.657 285.816 302.763 286.324 302.851 286.8 C 302.989 286.311 303.145 285.788 303.318 285.226 C 303.504 284.618 303.682 284.051 303.849 283.524 L 305.917 276.823 L 309.306 276.823 L 304.358 291.903 L 301.109 291.903 L 299.002 283.8 C 298.814 283.087 298.659 282.438 298.537 281.859 C 298.487 281.635 298.439 281.422 298.394 281.222 C 298.334 281.432 298.268 281.657 298.195 281.896 C 298.028 282.469 297.84 283.113 297.634 283.82 L 295.145 291.903 L 291.903 291.903 Z M 294.407 290.903 L 296.677 283.529 C 296.883 282.824 297.069 282.186 297.236 281.613 C 297.407 281.052 297.537 280.583 297.629 280.2 C 297.735 279.733 297.829 279.325 297.908 278.972 L 297.997 278.583 L 298.853 278.583 L 298.936 278.982 C 299.009 279.336 299.091 279.742 299.185 280.206 C 299.278 280.599 299.387 281.075 299.514 281.644 C 299.632 282.21 299.784 282.844 299.969 283.545 L 301.883 290.903 L 303.634 290.903 L 307.926 277.823 L 306.655 277.823 L 304.804 283.82 C 304.637 284.347 304.46 284.914 304.274 285.519 C 304.088 286.124 303.922 286.682 303.777 287.198 C 303.591 287.808 303.41 288.43 303.238 289.047 L 303.136 289.413 L 302.322 289.413 L 302.245 289.006 C 302.131 288.405 302.017 287.797 301.904 287.184 C 301.812 286.663 301.697 286.106 301.559 285.505 C 301.419 284.9 301.283 284.332 301.151 283.793 L 299.656 277.823 L 297.413 277.823 L 295.533 283.822 C 295.368 284.357 295.203 284.922 295.038 285.525 C 294.871 286.134 294.71 286.701 294.557 287.228 C 294.393 287.833 294.25 288.423 294.125 289.016 L 294.042 289.413 L 293.205 289.413 L 293.118 289.022 C 292.983 288.417 292.859 287.804 292.745 287.188 C 292.639 286.663 292.522 286.101 292.396 285.495 C 292.278 284.896 292.147 284.335 292.003 283.803 L 290.449 277.823 L 289.129 277.823 L 292.669 290.903 Z M 316.827 289.801 C 316.076 290.13 315.173 290.303 314.226 290.303 C 313.499 290.303 312.802 290.087 312.33 289.7 C 311.837 289.298 311.546 288.59 311.546 287.843 C 311.546 286.957 311.932 286.134 312.586 285.643 C 313.214 285.172 314.291 284.844 315.677 284.668 C 315.945 284.627 316.25 284.592 316.585 284.565 C 316.915 284.537 317.251 284.514 317.587 284.494 C 317.927 284.474 318.286 284.454 318.659 284.434 L 319.186 284.405 L 319.186 288.373 L 318.987 288.522 C 318.291 289.045 317.554 289.482 316.827 289.801 Z M 318.186 287.871 L 318.186 285.461 C 318.001 285.471 317.985 285.472 317.646 285.492 C 317.315 285.512 316.991 285.535 316.667 285.561 C 316.348 285.588 316.072 285.619 315.822 285.657 C 314.518 285.815 313.678 286.074 313.186 286.443 C 312.72 286.792 312.546 287.169 312.546 287.843 C 312.546 288.402 312.655 288.674 312.962 288.926 C 313.29 289.193 313.647 289.303 314.226 289.303 C 315.079 289.303 315.776 289.17 316.425 288.885 C 317.098 288.59 317.605 288.291 318.186 287.871 Z M 318.289 290.86 C 317.621 291.221 317.163 291.452 316.393 291.767 C 315.586 292.088 314.675 292.263 313.756 292.263 C 312.43 292.263 311.278 291.892 310.458 291.239 C 309.643 290.525 309.166 289.33 309.166 287.843 C 309.166 287.045 309.397 286.263 309.815 285.659 C 310.219 285.074 310.794 284.55 311.441 284.153 C 312.08 283.777 312.828 283.466 313.626 283.25 C 314.417 283.037 315.239 282.901 316.059 282.845 C 316.404 282.804 316.848 282.771 317.401 282.744 C 317.94 282.717 317.959 282.715 318.182 282.703 C 318.175 282.249 318.167 281.964 318.128 281.462 C 318.091 280.992 318.009 280.648 317.842 280.332 C 317.7 280.034 317.535 279.869 317.237 279.727 C 316.94 279.565 316.535 279.503 315.906 279.503 C 315.38 279.503 314.892 279.531 314.409 279.589 C 313.909 279.655 313.475 279.722 313.09 279.794 C 312.635 279.885 312.227 279.983 311.844 280.094 L 311.336 280.24 L 310.669 277.313 L 311.148 277.197 C 311.624 277.082 312.139 276.976 312.685 276.881 C 313.164 276.786 313.725 276.704 314.348 276.635 C 314.981 276.574 315.668 276.543 316.386 276.543 C 317.384 276.543 318.265 276.704 318.911 277.012 C 319.553 277.318 320.112 277.78 320.477 278.309 C 320.834 278.825 321.091 279.457 321.225 280.111 C 321.356 280.744 321.425 281.436 321.426 282.133 L 321.426 288.853 C 321.426 289.11 321.429 289.381 321.436 289.671 C 321.442 289.946 321.462 290.217 321.494 290.485 C 321.521 290.763 321.55 291.05 321.583 291.348 L 321.638 291.849 L 318.527 292.168 Z M 320.536 290.957 C 320.523 290.831 320.526 290.866 320.499 290.586 C 320.465 290.296 320.444 289.994 320.436 289.695 C 320.429 289.399 320.426 289.116 320.426 288.853 L 320.426 282.133 C 320.427 281.485 320.369 280.896 320.247 280.315 C 320.141 279.755 319.952 279.307 319.655 278.877 C 319.366 278.46 319.013 278.168 318.481 277.914 C 317.953 277.663 317.294 277.543 316.386 277.543 C 315.69 277.543 315.054 277.571 314.447 277.63 C 313.845 277.696 313.328 277.772 312.874 277.863 C 312.342 277.955 312.18 277.99 311.864 278.059 L 312.078 278.996 C 312.339 278.931 312.421 278.908 312.898 278.813 C 313.299 278.738 313.768 278.665 314.281 278.597 C 314.796 278.536 315.352 278.503 315.906 278.503 C 316.623 278.503 317.257 278.627 317.693 278.838 C 318.115 279.07 318.498 279.451 318.73 279.873 C 318.936 280.291 319.081 280.828 319.125 281.384 C 319.165 281.908 319.186 282.511 319.186 283.173 L 319.186 283.641 L 318.719 283.672 C 318.416 283.692 317.992 283.715 317.451 283.742 C 316.91 283.769 316.488 283.801 316.166 283.839 C 315.39 283.89 314.629 284.015 313.886 284.216 C 313.15 284.414 312.526 284.669 311.951 285.013 C 311.384 285.35 310.979 285.732 310.637 286.227 C 310.309 286.703 310.166 287.187 310.166 287.843 C 310.166 289.156 310.429 289.966 311.093 290.466 C 311.74 291.027 312.576 291.263 313.756 291.263 C 314.583 291.263 315.306 291.132 316.019 290.839 C 316.755 290.54 317.54 290.15 318.406 289.65 L 319.021 289.295 L 319.345 291.079 Z M 324.367 269.986 L 327.607 269.624 L 327.607 291.903 L 324.367 291.903 Z M 326.607 290.903 L 326.607 270.742 L 325.367 270.88 L 325.367 290.903 Z" style="fill: none;"/>
    <path d="M 180.055 289.801 C 179.304 290.13 178.401 290.303 177.454 290.303 C 176.727 290.303 176.03 290.087 175.558 289.7 C 175.065 289.298 174.774 288.59 174.774 287.843 C 174.774 286.957 175.16 286.134 175.814 285.643 C 176.442 285.172 177.519 284.844 178.905 284.668 C 179.175 284.626 179.478 284.592 179.813 284.565 C 180.143 284.537 180.479 284.514 180.815 284.494 C 181.155 284.474 181.514 284.454 181.887 284.434 L 182.414 284.405 L 182.414 288.373 L 182.215 288.522 C 181.519 289.045 180.782 289.482 180.055 289.801 Z M 181.414 287.871 L 181.414 285.461 C 181.229 285.471 181.213 285.472 180.874 285.492 C 180.543 285.512 180.219 285.535 179.895 285.561 C 179.576 285.588 179.3 285.619 179.05 285.657 C 177.746 285.815 176.906 286.074 176.414 286.443 C 175.948 286.792 175.774 287.169 175.774 287.843 C 175.774 288.402 175.883 288.674 176.19 288.926 C 176.518 289.193 176.875 289.303 177.454 289.303 C 178.307 289.303 179.004 289.17 179.653 288.885 C 180.326 288.59 180.833 288.291 181.414 287.871 Z M 181.517 290.86 C 180.849 291.221 180.391 291.452 179.621 291.767 C 178.814 292.088 177.903 292.263 176.984 292.263 C 175.658 292.263 174.506 291.892 173.686 291.239 C 172.871 290.525 172.394 289.33 172.394 287.843 C 172.394 287.045 172.625 286.263 173.043 285.659 C 173.447 285.074 174.022 284.55 174.669 284.153 C 175.308 283.777 176.056 283.466 176.854 283.25 C 177.645 283.037 178.467 282.901 179.287 282.845 C 179.632 282.804 180.076 282.771 180.629 282.744 C 181.168 282.717 181.187 282.715 181.41 282.703 C 181.403 282.249 181.395 281.964 181.356 281.462 C 181.319 280.992 181.237 280.648 181.07 280.332 C 180.928 280.035 180.763 279.869 180.465 279.727 C 180.168 279.564 179.763 279.503 179.134 279.503 C 178.608 279.503 178.12 279.531 177.637 279.589 C 177.137 279.655 176.703 279.722 176.318 279.794 C 175.863 279.885 175.455 279.983 175.072 280.094 L 174.564 280.24 L 173.897 277.313 L 174.376 277.197 C 174.852 277.082 175.367 276.976 175.913 276.881 C 176.392 276.786 176.953 276.704 177.576 276.635 C 178.209 276.574 178.896 276.543 179.614 276.543 C 180.612 276.543 181.493 276.704 182.139 277.012 C 182.781 277.318 183.34 277.78 183.705 278.309 C 184.062 278.825 184.319 279.457 184.453 280.111 C 184.584 280.744 184.653 281.436 184.654 282.133 L 184.654 288.853 C 184.654 289.11 184.657 289.381 184.664 289.671 C 184.67 289.946 184.69 290.217 184.722 290.485 C 184.749 290.763 184.778 291.05 184.811 291.348 L 184.866 291.849 L 181.755 292.168 Z M 183.764 290.957 C 183.751 290.831 183.754 290.866 183.727 290.586 C 183.693 290.296 183.672 289.994 183.664 289.695 C 183.657 289.399 183.654 289.116 183.654 288.853 L 183.654 282.133 C 183.655 281.485 183.597 280.896 183.475 280.315 C 183.369 279.755 183.18 279.307 182.883 278.877 C 182.594 278.46 182.241 278.168 181.709 277.914 C 181.181 277.663 180.522 277.543 179.614 277.543 C 178.918 277.543 178.282 277.571 177.675 277.63 C 177.073 277.696 176.556 277.772 176.102 277.863 C 175.57 277.955 175.408 277.99 175.092 278.059 L 175.306 278.996 C 175.567 278.931 175.649 278.908 176.126 278.813 C 176.527 278.738 176.996 278.665 177.508 278.597 C 178.024 278.536 178.58 278.503 179.134 278.503 C 179.851 278.503 180.485 278.627 180.921 278.838 C 181.343 279.07 181.726 279.451 181.958 279.873 C 182.164 280.291 182.309 280.828 182.352 281.384 C 182.393 281.908 182.414 282.511 182.414 283.173 L 182.414 283.641 L 181.947 283.672 C 181.644 283.692 181.22 283.715 180.679 283.742 C 180.138 283.769 179.716 283.801 179.394 283.839 C 178.618 283.89 177.857 284.015 177.114 284.216 C 176.378 284.414 175.754 284.669 175.179 285.013 C 174.612 285.35 174.207 285.732 173.865 286.227 C 173.537 286.703 173.394 287.187 173.394 287.843 C 173.394 289.156 173.657 289.966 174.321 290.466 C 174.968 291.027 175.804 291.263 176.984 291.263 C 177.811 291.263 178.534 291.132 179.247 290.839 C 179.983 290.54 180.768 290.15 181.634 289.65 L 182.249 289.295 L 182.573 291.079 Z M 185.526 276.823 L 189.06 276.823 L 189.176 277.16 L 192.604 287.128 L 192.765 287.699 L 192.943 287.091 L 196.704 276.823 L 200.133 276.823 L 194.285 291.903 L 191.074 291.903 Z M 193.601 290.903 L 198.673 277.823 L 197.402 277.823 L 193.888 287.42 L 193.137 289.973 L 192.364 289.973 L 191.645 287.412 L 188.346 277.823 L 186.96 277.823 L 191.772 290.903 Z M 201.169 276.846 L 204.409 276.484 L 204.409 291.903 L 201.169 291.903 Z M 203.409 290.903 L 203.409 277.602 L 202.169 277.74 L 202.169 290.903 Z M 200.799 273.283 C 200.799 272.761 201.038 272.23 201.386 271.86 C 201.756 271.51 202.287 271.273 202.809 271.273 C 203.352 271.273 203.903 271.505 204.292 271.849 C 204.657 272.22 204.909 272.757 204.909 273.283 C 204.909 273.814 204.658 274.355 204.292 274.727 C 203.903 275.071 203.352 275.303 202.809 275.303 C 202.287 275.303 201.756 275.064 201.386 274.716 C 201.036 274.345 200.799 273.811 200.799 273.283 Z M 202.089 274.006 C 202.293 274.243 202.477 274.303 202.809 274.303 C 203.172 274.303 203.379 274.242 203.604 274.001 C 203.851 273.799 203.909 273.618 203.909 273.283 C 203.909 272.955 203.856 272.781 203.608 272.578 C 203.383 272.338 203.172 272.273 202.809 272.273 C 202.477 272.273 202.3 272.326 202.096 272.563 C 201.859 272.767 201.799 272.951 201.799 273.283 C 201.799 273.621 201.852 273.803 202.089 274.006 Z M 207.458 279.863 C 207.459 279.247 207.407 278.513 207.302 277.632 L 207.243 277.143 L 210.31 276.734 L 210.558 278.189 C 210.855 277.99 210.939 277.927 211.439 277.64 C 211.945 277.349 212.511 277.087 213.09 276.872 C 213.69 276.661 214.342 276.543 214.958 276.543 C 215.945 276.543 216.815 276.749 217.437 277.105 C 218.05 277.5 218.3 277.865 218.596 278.438 C 219.376 277.889 219.692 277.727 220.532 277.272 C 221.42 276.804 222.403 276.543 223.358 276.543 C 224.087 276.543 224.767 276.649 225.301 276.834 C 225.852 277.049 226.358 277.43 226.703 277.89 C 227.033 278.357 227.293 279.003 227.439 279.72 C 227.57 280.421 227.637 281.307 227.638 282.333 L 227.638 291.903 L 224.398 291.903 L 224.398 282.583 C 224.398 282.026 224.391 281.536 224.378 281.1 C 224.362 280.696 224.307 280.402 224.209 280.136 C 224.122 279.9 224.042 279.779 223.848 279.667 C 223.684 279.537 223.468 279.503 223.058 279.503 C 222.661 279.503 222.327 279.549 221.986 279.661 C 221.625 279.771 221.268 279.928 220.883 280.144 C 220.498 280.347 219.989 280.715 219.238 281.313 L 219.238 291.903 L 215.998 291.903 L 215.998 282.583 C 215.998 282.027 215.991 281.536 215.978 281.1 C 215.962 280.696 215.907 280.402 215.809 280.136 C 215.722 279.9 215.641 279.779 215.448 279.667 C 215.284 279.537 215.068 279.503 214.658 279.503 C 214.219 279.503 213.805 279.581 213.321 279.768 C 212.819 279.967 212.364 280.192 211.915 280.462 C 211.459 280.735 211.121 280.963 210.698 281.267 L 210.698 291.903 L 207.458 291.903 Z M 209.698 290.903 L 209.698 280.76 L 209.902 280.61 C 210.417 280.231 210.923 279.891 211.401 279.604 C 211.885 279.314 212.415 279.053 212.953 278.838 C 213.52 278.627 214.123 278.503 214.658 278.503 C 215.182 278.503 215.676 278.634 216.006 278.838 C 216.317 279.06 216.608 279.412 216.747 279.79 C 216.875 280.138 216.954 280.587 216.977 281.06 C 216.991 281.504 216.998 282.02 216.998 282.583 L 216.998 290.903 L 218.238 290.903 L 218.238 280.834 L 218.424 280.684 C 219.295 279.982 219.967 279.502 220.408 279.265 C 220.835 279.028 221.275 278.836 221.688 278.706 C 222.107 278.577 222.589 278.503 223.058 278.503 C 223.582 278.503 224.076 278.635 224.406 278.838 C 224.717 279.06 225.008 279.412 225.147 279.79 C 225.275 280.138 225.354 280.587 225.377 281.06 C 225.391 281.504 225.398 282.02 225.398 282.583 L 225.398 290.903 L 226.638 290.903 L 226.638 282.333 C 226.639 281.345 226.58 280.551 226.457 279.906 C 226.337 279.277 226.164 278.836 225.893 278.477 C 225.653 278.124 225.379 277.918 224.956 277.772 C 224.517 277.612 224.015 277.543 223.358 277.543 C 222.527 277.543 221.782 277.728 221.004 278.154 C 220.19 278.593 219.421 279.07 218.666 279.602 L 218.107 279.995 L 217.904 279.351 C 217.678 278.639 217.387 278.221 216.92 277.961 C 216.448 277.664 215.837 277.543 214.958 277.543 C 214.428 277.543 213.946 277.625 213.426 277.814 C 212.885 278.013 212.405 278.237 211.937 278.506 C 211.463 278.779 210.991 279.09 210.494 279.456 L 209.841 279.937 L 209.486 277.852 L 208.349 278.004 C 208.421 278.707 208.457 279.213 208.458 279.863 L 208.458 290.903 Z M 242.082 291.403 L 241.642 291.54 C 241.204 291.677 240.736 291.797 240.264 291.893 C 239.801 291.987 239.281 292.074 238.718 292.149 C 238.149 292.223 237.543 292.263 236.933 292.263 C 235.963 292.263 235.015 292.118 234.168 291.849 C 233.317 291.565 232.519 291.085 231.873 290.47 C 231.243 289.844 230.714 289.002 230.345 288.038 C 229.986 287.061 229.793 285.841 229.793 284.463 C 229.793 283.211 229.981 282.056 230.333 281.082 C 230.687 280.113 231.2 279.254 231.819 278.59 C 232.447 277.928 233.229 277.393 234.07 277.048 C 234.911 276.721 235.865 276.543 236.843 276.543 C 237.817 276.543 238.728 276.755 239.456 277.131 C 240.178 277.516 240.824 278.066 241.298 278.72 C 241.766 279.366 242.129 280.162 242.357 281.016 C 242.577 281.862 242.691 282.779 242.693 283.703 L 242.693 283.786 L 242.131 285.433 L 233.251 285.433 C 233.279 285.804 233.296 285.994 233.436 286.545 C 233.573 287.079 233.785 287.512 234.117 287.935 C 234.442 288.36 234.832 288.665 235.373 288.924 C 235.898 289.19 236.521 289.303 237.353 289.303 C 237.898 289.303 238.378 289.276 238.825 289.218 C 239.28 289.152 239.668 289.08 239.998 288.996 C 240.323 288.92 240.612 288.833 240.897 288.725 L 241.435 288.521 Z M 240.231 289.969 C 239.871 290.059 239.441 290.139 238.964 290.208 C 238.481 290.27 237.928 290.303 237.353 290.303 C 236.425 290.303 235.582 290.13 234.933 289.822 C 234.303 289.507 233.739 289.061 233.33 288.552 C 232.943 288.042 232.641 287.427 232.47 286.801 C 232.318 286.192 232.235 285.545 232.233 284.933 L 232.231 284.433 L 241.415 284.433 L 241.693 283.62 C 241.689 282.79 241.597 282.05 241.389 281.27 C 241.191 280.498 240.9 279.874 240.488 279.306 C 240.082 278.746 239.618 278.337 238.991 278.016 C 238.388 277.686 237.709 277.543 236.843 277.543 C 235.955 277.543 235.186 277.678 234.439 277.977 C 233.694 278.272 233.094 278.683 232.548 279.275 C 231.995 279.851 231.587 280.539 231.273 281.422 C 230.946 282.303 230.793 283.289 230.793 284.463 C 230.793 285.765 230.948 286.81 231.281 287.687 C 231.606 288.562 232.016 289.221 232.572 289.755 C 233.126 290.299 233.729 290.661 234.477 290.897 C 235.244 291.148 236.037 291.263 236.933 291.263 C 237.511 291.263 238.051 291.229 238.588 291.157 C 239.133 291.086 239.619 291.005 240.062 290.913 C 240.51 290.823 240.631 290.789 240.902 290.715 L 240.706 289.842 C 240.551 289.888 240.585 289.885 240.231 289.969 Z M 232.497 281.904 C 232.626 281.394 232.867 280.86 233.186 280.377 C 233.515 279.888 233.988 279.43 234.532 279.073 C 235.113 278.714 235.892 278.503 236.733 278.503 C 237.526 278.503 238.262 278.769 238.776 279.2 C 239.238 279.619 239.619 280.141 239.853 280.678 C 240.071 281.195 240.218 281.724 240.279 282.207 C 240.34 282.662 240.372 282.984 240.373 283.143 L 240.377 283.643 L 232.308 283.643 L 232.313 283.143 C 232.316 282.825 232.38 282.392 232.497 281.904 Z M 233.362 282.643 L 239.327 282.643 C 239.316 282.554 239.347 282.779 239.287 282.34 C 239.242 281.93 239.129 281.525 238.933 281.069 C 238.755 280.632 238.502 280.287 238.111 279.947 C 237.772 279.617 237.368 279.503 236.733 279.503 C 236.014 279.503 235.507 279.618 235.074 279.913 C 234.606 280.21 234.279 280.523 234.021 280.928 C 233.741 281.338 233.568 281.718 233.469 282.142 C 233.36 282.588 233.387 282.496 233.362 282.643 Z M 244.745 269.986 L 247.985 269.624 L 247.985 278.176 C 248.298 277.989 248.359 277.944 248.919 277.657 C 249.485 277.371 250.077 277.113 250.671 276.894 C 251.284 276.67 251.931 276.543 252.525 276.543 C 253.319 276.543 254.041 276.647 254.601 276.831 C 255.175 277.043 255.707 277.42 256.08 277.877 C 256.433 278.346 256.715 278.991 256.865 279.711 C 257.011 280.414 257.084 281.305 257.085 282.333 L 257.085 291.903 L 253.845 291.903 L 253.845 282.583 C 253.845 282.028 253.835 281.539 253.816 281.106 C 253.797 280.707 253.738 280.429 253.62 280.17 C 253.512 279.933 253.411 279.805 253.186 279.686 C 252.965 279.547 252.685 279.503 252.215 279.503 C 251.778 279.503 251.345 279.592 250.823 279.79 C 250.279 279.997 249.778 280.228 249.288 280.5 C 248.799 280.773 248.436 281.002 247.985 281.307 L 247.985 291.903 L 244.745 291.903 Z M 246.985 290.903 L 246.985 280.781 L 247.201 280.632 C 247.75 280.253 248.29 279.913 248.801 279.627 C 249.323 279.339 249.891 279.075 250.467 278.856 C 251.065 278.628 251.678 278.503 252.215 278.503 C 252.785 278.503 253.315 278.624 253.682 278.818 C 254.027 279.033 254.358 279.379 254.53 279.756 C 254.692 280.111 254.793 280.579 254.814 281.06 C 254.835 281.507 254.845 282.018 254.845 282.583 L 254.845 290.903 L 256.085 290.903 L 256.085 282.333 C 256.086 281.347 256.019 280.558 255.885 279.915 C 255.755 279.289 255.578 278.848 255.291 278.491 C 255.024 278.135 254.722 277.924 254.27 277.775 C 253.803 277.614 253.251 277.543 252.525 277.543 C 252.025 277.543 251.552 277.63 251.019 277.832 C 250.453 278.039 249.911 278.275 249.372 278.549 C 248.839 278.821 248.311 279.133 247.762 279.499 L 246.985 280.017 L 246.985 270.742 L 245.745 270.88 L 245.745 290.903 Z M 271.524 291.403 L 271.084 291.54 C 270.646 291.677 270.177 291.797 269.705 291.893 C 269.243 291.988 268.723 292.074 268.16 292.149 C 267.591 292.223 266.985 292.263 266.375 292.263 C 265.405 292.263 264.457 292.118 263.61 291.849 C 262.759 291.565 261.961 291.085 261.315 290.47 C 260.685 289.844 260.156 289.002 259.787 288.038 C 259.428 287.061 259.235 285.841 259.235 284.463 C 259.235 283.211 259.423 282.056 259.775 281.082 C 260.129 280.112 260.642 279.254 261.261 278.59 C 261.889 277.928 262.671 277.393 263.512 277.048 C 264.353 276.721 265.307 276.543 266.285 276.543 C 267.259 276.543 268.17 276.755 268.898 277.131 C 269.619 277.516 270.266 278.066 270.74 278.72 C 271.208 279.366 271.571 280.162 271.799 281.016 C 272.019 281.862 272.133 282.779 272.135 283.703 L 272.135 283.786 L 271.573 285.433 L 262.693 285.433 C 262.721 285.804 262.738 285.994 262.878 286.545 C 263.015 287.079 263.225 287.51 263.558 287.934 C 263.883 288.359 264.274 288.665 264.815 288.924 C 265.34 289.19 265.963 289.303 266.795 289.303 C 267.34 289.303 267.82 289.276 268.267 289.218 C 268.724 289.152 269.11 289.08 269.44 288.996 C 269.765 288.92 270.054 288.833 270.339 288.725 L 270.877 288.521 Z M 269.673 289.969 C 269.313 290.059 268.883 290.139 268.406 290.208 C 267.923 290.27 267.37 290.303 266.795 290.303 C 265.867 290.303 265.024 290.13 264.375 289.822 C 263.745 289.507 263.181 289.061 262.772 288.552 C 262.385 288.042 262.083 287.427 261.912 286.801 C 261.76 286.192 261.677 285.545 261.675 284.933 L 261.673 284.433 L 270.857 284.433 L 271.135 283.62 C 271.131 282.79 271.039 282.05 270.831 281.27 C 270.633 280.498 270.342 279.874 269.93 279.306 C 269.524 278.746 269.06 278.337 268.433 278.016 C 267.83 277.686 267.151 277.543 266.285 277.543 C 265.397 277.543 264.625 277.679 263.878 277.978 C 263.133 278.273 262.536 278.683 261.99 279.275 C 261.437 279.851 261.029 280.539 260.715 281.422 C 260.388 282.303 260.235 283.289 260.235 284.463 C 260.235 285.765 260.39 286.81 260.723 287.687 C 261.048 288.562 261.458 289.221 262.014 289.755 C 262.568 290.299 263.171 290.661 263.919 290.897 C 264.686 291.148 265.479 291.263 266.375 291.263 C 266.953 291.263 267.493 291.229 268.03 291.157 C 268.575 291.086 269.061 291.005 269.504 290.913 C 269.952 290.823 270.073 290.789 270.344 290.715 L 270.148 289.842 C 269.993 289.888 270.029 289.885 269.673 289.969 Z M 261.939 281.904 C 262.068 281.394 262.309 280.86 262.628 280.377 C 262.957 279.888 263.43 279.43 263.974 279.073 C 264.555 278.714 265.334 278.503 266.175 278.503 C 266.968 278.503 267.704 278.769 268.218 279.2 C 268.68 279.619 269.061 280.141 269.295 280.678 C 269.513 281.195 269.66 281.724 269.721 282.207 C 269.782 282.662 269.814 282.984 269.815 283.143 L 269.819 283.643 L 261.751 283.643 L 261.755 283.143 C 261.758 282.825 261.822 282.392 261.939 281.904 Z M 262.804 282.643 L 268.769 282.643 C 268.758 282.554 268.789 282.779 268.729 282.34 C 268.684 281.93 268.571 281.525 268.375 281.069 C 268.197 280.632 267.944 280.287 267.553 279.947 C 267.214 279.617 266.81 279.503 266.175 279.503 C 265.456 279.503 264.949 279.618 264.516 279.913 C 264.048 280.21 263.721 280.523 263.463 280.928 C 263.183 281.338 263.01 281.718 262.911 282.141 C 262.802 282.586 262.829 282.496 262.804 282.643 Z M 274.207 291.403 L 274.208 280.098 C 274.228 279.731 274.181 278.915 274.069 277.616 L 274.028 277.141 L 277.06 276.733 L 277.315 278.256 C 277.676 278.038 277.824 277.944 278.391 277.657 C 278.957 277.371 279.548 277.112 280.135 276.894 C 280.754 276.67 281.4 276.543 281.987 276.543 C 282.788 276.543 283.513 276.647 284.073 276.831 C 284.647 277.043 285.183 277.424 285.556 277.881 C 285.9 278.349 286.177 278.992 286.327 279.711 C 286.473 280.414 286.546 281.305 286.547 282.333 L 286.547 291.903 L 283.307 291.903 L 283.307 282.583 C 283.307 282.027 283.3 281.534 283.287 281.098 C 283.272 280.703 283.21 280.429 283.092 280.17 C 282.984 279.934 282.878 279.804 282.646 279.685 C 282.434 279.547 282.157 279.503 281.687 279.503 C 281.251 279.503 280.828 279.588 280.328 279.789 C 279.796 279.996 279.291 280.23 278.784 280.503 C 278.276 280.777 277.905 281.005 277.447 281.309 L 277.447 291.903 L 274.207 291.903 Z M 276.447 290.903 L 276.447 280.779 L 276.665 280.63 C 277.222 280.25 277.778 279.909 278.31 279.623 C 278.843 279.336 279.404 279.076 279.966 278.857 C 280.546 278.632 281.149 278.503 281.687 278.503 C 282.257 278.503 282.784 278.625 283.147 278.82 C 283.499 279.035 283.83 279.378 284.002 279.756 C 284.164 280.111 284.261 280.579 284.286 281.06 C 284.3 281.504 284.307 282.019 284.307 282.583 L 284.307 290.903 L 285.547 290.903 L 285.547 282.333 C 285.548 281.347 285.481 280.558 285.347 279.915 C 285.217 279.288 285.044 278.848 284.762 278.49 C 284.495 278.134 284.194 277.924 283.742 277.775 C 283.276 277.614 282.72 277.543 281.987 277.543 C 281.494 277.543 281.02 277.63 280.479 277.832 C 279.92 278.04 279.383 278.275 278.843 278.549 C 278.304 278.822 277.772 279.134 277.224 279.499 L 276.582 279.928 L 276.234 277.853 L 275.105 278.005 C 275.189 279.055 275.225 279.709 275.207 280.134 L 275.207 290.903 Z M 287.823 276.823 L 291.223 276.823 L 292.969 283.545 C 293.117 284.093 293.254 284.679 293.376 285.294 C 293.479 285.789 293.577 286.262 293.667 286.706 C 293.798 286.253 293.933 285.772 294.074 285.261 C 294.241 284.65 294.411 284.067 294.579 283.523 L 296.679 276.823 L 300.436 276.823 L 300.531 277.202 L 302.122 283.553 C 302.255 284.095 302.393 284.672 302.533 285.281 C 302.657 285.816 302.763 286.324 302.851 286.8 C 302.989 286.311 303.145 285.788 303.318 285.226 C 303.504 284.618 303.682 284.051 303.849 283.524 L 305.917 276.823 L 309.306 276.823 L 304.358 291.903 L 301.109 291.903 L 299.002 283.8 C 298.814 283.087 298.659 282.438 298.537 281.859 C 298.487 281.635 298.439 281.422 298.394 281.222 C 298.334 281.432 298.268 281.657 298.195 281.896 C 298.028 282.469 297.84 283.113 297.634 283.82 L 295.145 291.903 L 291.903 291.903 Z M 294.407 290.903 L 296.677 283.529 C 296.883 282.824 297.069 282.186 297.236 281.613 C 297.407 281.052 297.537 280.583 297.629 280.2 C 297.735 279.733 297.829 279.325 297.908 278.972 L 297.997 278.583 L 298.853 278.583 L 298.936 278.982 C 299.009 279.336 299.091 279.742 299.185 280.206 C 299.278 280.599 299.387 281.075 299.514 281.644 C 299.632 282.21 299.784 282.844 299.969 283.545 L 301.883 290.903 L 303.634 290.903 L 307.926 277.823 L 306.655 277.823 L 304.804 283.82 C 304.637 284.347 304.46 284.914 304.274 285.519 C 304.088 286.124 303.922 286.682 303.777 287.198 C 303.591 287.808 303.41 288.43 303.238 289.047 L 303.136 289.413 L 302.322 289.413 L 302.245 289.006 C 302.131 288.405 302.017 287.797 301.904 287.184 C 301.812 286.663 301.697 286.106 301.559 285.505 C 301.419 284.9 301.283 284.332 301.151 283.793 L 299.656 277.823 L 297.413 277.823 L 295.533 283.822 C 295.368 284.357 295.203 284.922 295.038 285.525 C 294.871 286.134 294.71 286.701 294.557 287.228 C 294.393 287.833 294.25 288.423 294.125 289.016 L 294.042 289.413 L 293.205 289.413 L 293.118 289.022 C 292.983 288.417 292.859 287.804 292.745 287.188 C 292.639 286.663 292.522 286.101 292.396 285.495 C 292.278 284.896 292.147 284.335 292.003 283.803 L 290.449 277.823 L 289.129 277.823 L 292.669 290.903 Z M 316.827 289.801 C 316.076 290.13 315.173 290.303 314.226 290.303 C 313.499 290.303 312.802 290.087 312.33 289.7 C 311.837 289.298 311.546 288.59 311.546 287.843 C 311.546 286.957 311.932 286.134 312.586 285.643 C 313.214 285.172 314.291 284.844 315.677 284.668 C 315.945 284.627 316.25 284.592 316.585 284.565 C 316.915 284.537 317.251 284.514 317.587 284.494 C 317.927 284.474 318.286 284.454 318.659 284.434 L 319.186 284.405 L 319.186 288.373 L 318.987 288.522 C 318.291 289.045 317.554 289.482 316.827 289.801 Z M 318.186 287.871 L 318.186 285.461 C 318.001 285.471 317.985 285.472 317.646 285.492 C 317.315 285.512 316.991 285.535 316.667 285.561 C 316.348 285.588 316.072 285.619 315.822 285.657 C 314.518 285.815 313.678 286.074 313.186 286.443 C 312.72 286.792 312.546 287.169 312.546 287.843 C 312.546 288.402 312.655 288.674 312.962 288.926 C 313.29 289.193 313.647 289.303 314.226 289.303 C 315.079 289.303 315.776 289.17 316.425 288.885 C 317.098 288.59 317.605 288.291 318.186 287.871 Z M 318.289 290.86 C 317.621 291.221 317.163 291.452 316.393 291.767 C 315.586 292.088 314.675 292.263 313.756 292.263 C 312.43 292.263 311.278 291.892 310.458 291.239 C 309.643 290.525 309.166 289.33 309.166 287.843 C 309.166 287.045 309.397 286.263 309.815 285.659 C 310.219 285.074 310.794 284.55 311.441 284.153 C 312.08 283.777 312.828 283.466 313.626 283.25 C 314.417 283.037 315.239 282.901 316.059 282.845 C 316.404 282.804 316.848 282.771 317.401 282.744 C 317.94 282.717 317.959 282.715 318.182 282.703 C 318.175 282.249 318.167 281.964 318.128 281.462 C 318.091 280.992 318.009 280.648 317.842 280.332 C 317.7 280.034 317.535 279.869 317.237 279.727 C 316.94 279.565 316.535 279.503 315.906 279.503 C 315.38 279.503 314.892 279.531 314.409 279.589 C 313.909 279.655 313.475 279.722 313.09 279.794 C 312.635 279.885 312.227 279.983 311.844 280.094 L 311.336 280.24 L 310.669 277.313 L 311.148 277.197 C 311.624 277.082 312.139 276.976 312.685 276.881 C 313.164 276.786 313.725 276.704 314.348 276.635 C 314.981 276.574 315.668 276.543 316.386 276.543 C 317.384 276.543 318.265 276.704 318.911 277.012 C 319.553 277.318 320.112 277.78 320.477 278.309 C 320.834 278.825 321.091 279.457 321.225 280.111 C 321.356 280.744 321.425 281.436 321.426 282.133 L 321.426 288.853 C 321.426 289.11 321.429 289.381 321.436 289.671 C 321.442 289.946 321.462 290.217 321.494 290.485 C 321.521 290.763 321.55 291.05 321.583 291.348 L 321.638 291.849 L 318.527 292.168 Z M 320.536 290.957 C 320.523 290.831 320.526 290.866 320.499 290.586 C 320.465 290.296 320.444 289.994 320.436 289.695 C 320.429 289.399 320.426 289.116 320.426 288.853 L 320.426 282.133 C 320.427 281.485 320.369 280.896 320.247 280.315 C 320.141 279.755 319.952 279.307 319.655 278.877 C 319.366 278.46 319.013 278.168 318.481 277.914 C 317.953 277.663 317.294 277.543 316.386 277.543 C 315.69 277.543 315.054 277.571 314.447 277.63 C 313.845 277.696 313.328 277.772 312.874 277.863 C 312.342 277.955 312.18 277.99 311.864 278.059 L 312.078 278.996 C 312.339 278.931 312.421 278.908 312.898 278.813 C 313.299 278.738 313.768 278.665 314.281 278.597 C 314.796 278.536 315.352 278.503 315.906 278.503 C 316.623 278.503 317.257 278.627 317.693 278.838 C 318.115 279.07 318.498 279.451 318.73 279.873 C 318.936 280.291 319.081 280.828 319.125 281.384 C 319.165 281.908 319.186 282.511 319.186 283.173 L 319.186 283.641 L 318.719 283.672 C 318.416 283.692 317.992 283.715 317.451 283.742 C 316.91 283.769 316.488 283.801 316.166 283.839 C 315.39 283.89 314.629 284.015 313.886 284.216 C 313.15 284.414 312.526 284.669 311.951 285.013 C 311.384 285.35 310.979 285.732 310.637 286.227 C 310.309 286.703 310.166 287.187 310.166 287.843 C 310.166 289.156 310.429 289.966 311.093 290.466 C 311.74 291.027 312.576 291.263 313.756 291.263 C 314.583 291.263 315.306 291.132 316.019 290.839 C 316.755 290.54 317.54 290.15 318.406 289.65 L 319.021 289.295 L 319.345 291.079 Z M 324.367 269.986 L 327.607 269.624 L 327.607 291.903 L 324.367 291.903 Z M 326.607 290.903 L 326.607 270.742 L 325.367 270.88 L 325.367 290.903 Z" style="fill: none;"/>
    <path d="M 161.1 184.5 L 338.9 184.5 C 344.215 184.5 348.524 188.546 348.524 193.536 L 348.524 276.464 C 348.524 281.454 344.215 285.5 338.9 285.5 L 332.739 285.5 L 332.739 279.403 L 335.584 279.403 C 338.537 279.403 340.931 277.155 340.931 274.383 L 340.931 196.023 C 340.931 193.251 338.537 191.003 335.584 191.003 L 165.207 191.003 C 162.254 191.003 159.86 193.251 159.86 196.023 L 159.86 274.383 C 159.86 277.155 162.254 279.403 165.207 279.403 L 169.121 279.403 L 169.121 285.5 L 161.1 285.5 C 155.785 285.5 151.476 281.454 151.476 276.464 L 151.476 193.536 C 151.476 188.546 155.785 184.5 161.1 184.5 Z" style=""/>
  </g>
</svg>