<?xml version="1.0" encoding="utf-8"?>
<svg viewBox="0 0 500 500" xmlns="http://www.w3.org/2000/svg">
  <path d="M 445.388 364.687 L 54.611 364.687 L 54.611 135.312 L 445.388 135.312 Z M 55.611 136.312 L 55.611 363.687 L 444.388 363.687 L 444.388 136.312 Z M 442.26 137.145 L 442.26 362.853 L 57.741 362.853 L 57.741 137.145 Z M 58.741 361.853 L 441.26 361.853 L 441.26 138.145 L 58.741 138.145 Z M 116.515 328.416 L 116.515 171.582 L 383.484 171.582 L 383.484 328.416 Z M 382.484 172.582 L 117.515 172.582 L 117.515 327.416 L 382.484 327.416 Z M 380.355 326.583 L 119.645 326.583 L 119.645 173.416 L 380.355 173.416 Z M 120.645 174.416 L 120.645 325.583 L 379.355 325.583 L 379.355 174.416 Z" style="fill: none;"/>
  <path d="M 445.388 364.687 L 54.611 364.687 L 54.611 135.312 L 445.388 135.312 Z M 55.611 136.312 L 55.611 363.687 L 444.388 363.687 L 444.388 136.312 Z M 442.26 137.145 L 442.26 362.853 L 57.741 362.853 L 57.741 137.145 Z M 58.741 361.853 L 441.26 361.853 L 441.26 138.145 L 58.741 138.145 Z" style="fill: none;"/>
  <path d="M 445.388 364.687 L 54.611 364.687 L 54.611 135.312 L 445.388 135.312 Z M 55.611 136.312 L 55.611 363.687 L 444.388 363.687 L 444.388 136.312 Z M 442.26 137.145 L 442.26 362.853 L 57.741 362.853 L 57.741 137.145 Z M 58.741 361.853 L 441.26 361.853 L 441.26 138.145 L 58.741 138.145 Z" style="fill: none;"/>
  <path d="M 328.417 383.484 L 171.583 383.484 L 171.583 116.516 L 328.417 116.516 Z M 172.583 117.516 L 172.583 382.484 L 327.417 382.484 L 327.417 117.516 Z M 326.583 119.645 L 326.583 380.355 L 173.417 380.355 L 173.417 119.645 Z M 174.417 379.355 L 325.583 379.355 L 325.583 120.645 L 174.417 120.645 Z" style="fill: none;" transform="matrix(0, 1, -1, 0, 500, 0.000015)"/>
  <path d="M 328.417 383.484 L 171.583 383.484 L 171.583 116.516 L 328.417 116.516 Z M 172.583 117.516 L 172.583 382.484 L 327.417 382.484 L 327.417 117.516 Z M 326.583 119.645 L 326.583 380.355 L 173.417 380.355 L 173.417 119.645 Z M 174.417 379.355 L 325.583 379.355 L 325.583 120.645 L 174.417 120.645 Z" style="fill: none;" transform="matrix(0, 1, -1, 0, 500, 0.000015)"/>
  <path d="M 67.103 94.473 L 432.898 94.473 C 438.622 94.779 445.146 97.381 448.842 101.077 C 452.538 104.773 455.14 111.297 455.446 117.021 L 455.446 382.979 C 455.14 388.703 452.538 395.227 448.842 398.923 C 445.146 402.619 438.622 405.221 432.898 405.527 L 67.103 405.527 C 61.379 405.221 54.855 402.619 51.159 398.923 C 47.463 395.227 44.861 388.703 44.555 382.979 L 44.555 117.021 C 44.861 111.297 47.463 104.773 51.159 101.077 C 54.855 97.381 61.379 94.779 67.103 94.473 Z M 61.059 110.977 C 59.127 112.908 58.249 114.158 58.555 117.021 L 58.555 382.979 C 58.249 385.842 59.127 387.092 61.059 389.023 C 62.99 390.955 64.24 391.833 67.103 391.527 L 432.898 391.527 C 435.761 391.833 437.011 390.955 438.942 389.023 C 440.874 387.092 441.752 385.842 441.446 382.979 L 441.446 117.021 C 441.752 114.158 440.874 112.908 438.942 110.977 C 437.011 109.045 435.761 108.167 432.898 108.473 L 67.103 108.473 C 64.24 108.167 62.99 109.045 61.059 110.977 Z" style="fill: none;"/>
  <path d="M 463.055 354.23 L 378.173 145.769 C 377.957 145.239 377.658 144.727 377.292 144.243 C 375.637 142.057 372.625 140.464 369.829 140.464 L 40.97 140.464 C 38.174 140.464 36.459 142.057 36.585 144.243 C 36.612 144.727 36.73 145.239 36.946 145.769 L 121.827 354.23 C 122.043 354.76 122.343 355.273 122.709 355.756 C 124.363 357.942 127.376 359.535 130.172 359.535 L 459.03 359.535 C 461.827 359.535 463.542 357.942 463.416 355.756 C 463.389 355.273 463.271 354.76 463.055 354.23 Z M -3.49 112.439 L 391.466 112.439 C 400.738 112.439 410.879 118.887 414.117 126.84 L 514.415 373.16 C 517.653 381.113 512.763 387.561 503.491 387.561 L 108.534 387.561 C 99.263 387.561 89.122 381.113 85.884 373.16 L -14.414 126.84 C -17.653 118.887 -12.762 112.439 -3.49 112.439 Z M 364.201 177.835 L 77.029 177.835 L 135.797 322.163 L 422.969 322.163 Z M 361.514 179.534 L 418.899 320.465 L 138.485 320.465 L 81.1 179.534 Z M -3.488 144.243 L 82.636 355.756 L 503.487 355.756 L 417.362 144.243 Z M 85.324 354.057 L 0.583 145.941 L 414.676 145.941 L 499.418 354.057 Z" style="stroke-linecap: round; fill: rgb(154, 169, 106);" transform="matrix(0.926165, 0.377119, -0.377119, 0.926165, 112.738447, -75.821013)"/>
  <path d="M 97.712 131.232 L 402.289 131.232 C 403.973 131.254 405.593 131.957 406.693 133.056 C 407.792 134.156 408.495 135.776 408.517 137.46 L 408.517 362.539 C 408.495 364.223 407.792 365.843 406.693 366.943 C 405.593 368.042 403.973 368.745 402.289 368.767 L 97.712 368.767 C 96.028 368.745 94.408 368.042 93.308 366.943 C 92.209 365.843 91.506 364.223 91.484 362.539 L 91.484 137.46 C 91.506 135.776 92.209 134.156 93.308 133.056 C 94.408 131.957 96.028 131.254 97.712 131.232 Z M 94.015 133.763 C 93.042 134.737 92.462 135.98 92.484 137.46 L 92.484 362.539 C 92.462 364.019 93.042 365.262 94.015 366.236 C 94.989 367.209 96.232 367.789 97.712 367.767 L 402.289 367.767 C 403.769 367.789 405.012 367.209 405.986 366.236 C 406.959 365.262 407.539 364.019 407.517 362.539 L 407.517 137.46 C 407.539 135.98 406.959 134.737 405.986 133.763 C 405.012 132.79 403.769 132.21 402.289 132.232 L 97.712 132.232 C 96.232 132.21 94.989 132.79 94.015 133.763 Z" style="fill: none;"/>
</svg>