<?xml version="1.0" encoding="utf-8"?>
<svg viewBox="172.394 207.737 155.213 84.526" xmlns="http://www.w3.org/2000/svg">
  <g transform="matrix(1, 0, 0, 1, -11.310493, -15.009117)">
    <path d="M 204.82 159.974 L 235.989 212.375 L 173.651 212.375 L 204.82 159.974 Z" style="fill: rgb(62, 117, 185); pointer-events: auto;" transform="matrix(0.999997, 0.002351, -0.00259, 0.999997, 15.865427, 63.344536)"/>
    <path d="M 236.868 212.875 L 172.772 212.875 L 204.82 158.996 Z M 174.53 211.875 L 235.11 211.875 L 204.82 160.952 Z" style="fill: none;" transform="matrix(0.999997, 0.002351, -0.00259, 0.999997, 15.865427, 63.344536)"/>
    <path d="M 236.868 212.875 L 172.772 212.875 L 204.82 158.996 Z M 174.53 211.875 L 235.11 211.875 L 204.82 160.952 Z" style="fill: none;" transform="matrix(0.999997, 0.002351, -0.00259, 0.999997, 15.865427, 63.344536)"/>
    <path d="M -142.482 -159.974 L -111.313 -107.573 L -173.651 -107.573 L -142.482 -159.974 Z" style="fill: rgb(129, 154, 46); pointer-events: auto;" transform="matrix(0.999997, -0.002351, -0.00259, -0.999997, 404.182343, 115.891922)"/>
    <path d="M -110.434 -107.073 L -174.53 -107.073 L -142.482 -160.952 Z M -172.772 -108.073 L -112.192 -108.073 L -142.482 -158.996 Z" style="fill: none;" transform="matrix(0.999997, -0.002351, -0.00259, -0.999997, 404.182343, 115.891922)"/>
    <path d="M -110.434 -107.073 L -174.53 -107.073 L -142.482 -160.952 Z M -172.772 -108.073 L -112.192 -108.073 L -142.482 -158.996 Z" style="fill: none;" transform="matrix(0.999997, -0.002351, -0.00259, -0.999997, 404.182343, 115.891922)"/>
    <path d="M 204.82 159.974 L 235.989 212.375 L 173.651 212.375 L 204.82 159.974 Z" style="pointer-events: auto; fill: rgb(199, 169, 17);" transform="matrix(0.999997, 0.002351, -0.00259, 0.999997, 99.710068, 63.344524)"/>
    <path d="M 236.868 212.875 L 172.772 212.875 L 204.82 158.996 Z M 174.53 211.875 L 235.11 211.875 L 204.82 160.952 Z" style="fill: none;" transform="matrix(0.999997, 0.002351, -0.00259, 0.999997, 99.710068, 63.344524)"/>
    <path d="M 236.868 212.875 L 172.772 212.875 L 204.82 158.996 Z M 174.53 211.875 L 235.11 211.875 L 204.82 160.952 Z" style="fill: none;" transform="matrix(0.999997, 0.002351, -0.00259, 0.999997, 99.710068, 63.344524)"/>
    <path d="M 193.224 303.132 L 193.224 299.942 C 192.851 299.962 192.494 299.982 192.154 300.002 C 191.821 300.022 191.491 300.045 191.164 300.072 C 190.837 300.099 190.544 300.132 190.284 300.172 C 188.937 300.339 187.984 300.632 187.424 301.052 C 186.864 301.472 186.584 302.072 186.584 302.852 C 186.584 303.505 186.784 303.995 187.184 304.322 C 187.584 304.649 188.111 304.812 188.764 304.812 C 189.664 304.812 190.464 304.659 191.164 304.352 C 191.864 304.045 192.551 303.639 193.224 303.132 Z M 193.474 306.632 L 193.194 305.092 C 192.314 305.599 191.497 306.005 190.744 306.312 C 189.984 306.619 189.167 306.772 188.294 306.772 C 187.041 306.772 186.047 306.469 185.314 305.862 C 184.574 305.255 184.204 304.252 184.204 302.852 C 184.204 302.125 184.391 301.492 184.764 300.952 C 185.137 300.412 185.627 299.959 186.234 299.592 C 186.841 299.232 187.527 298.949 188.294 298.742 C 189.061 298.535 189.844 298.405 190.644 298.352 C 190.977 298.312 191.417 298.279 191.964 298.252 C 192.504 298.225 192.924 298.202 193.224 298.182 C 193.224 297.529 193.204 296.945 193.164 296.432 C 193.124 295.919 193.011 295.479 192.824 295.112 C 192.637 294.752 192.364 294.479 192.004 294.292 C 191.637 294.105 191.117 294.012 190.444 294.012 C 189.904 294.012 189.384 294.042 188.884 294.102 C 188.377 294.169 187.927 294.239 187.534 294.312 C 187.067 294.405 186.637 294.509 186.244 294.622 L 185.804 292.692 C 186.271 292.579 186.774 292.475 187.314 292.382 C 187.781 292.289 188.321 292.209 188.934 292.142 C 189.554 292.082 190.217 292.052 190.924 292.052 C 191.877 292.052 192.647 292.192 193.234 292.472 C 193.821 292.752 194.277 293.129 194.604 293.602 C 194.931 294.075 195.154 294.615 195.274 295.222 C 195.401 295.829 195.464 296.469 195.464 297.142 L 195.464 303.862 C 195.464 304.122 195.467 304.399 195.474 304.692 C 195.481 304.979 195.501 305.262 195.534 305.542 C 195.561 305.822 195.591 306.112 195.624 306.412 L 193.474 306.632 ZM 202.733 306.412 L 197.553 292.332 L 200.013 292.332 L 203.433 302.272 L 204.053 304.482 L 204.073 304.482 L 204.723 302.272 L 208.363 292.332 L 210.713 292.332 L 205.253 306.412 L 202.733 306.412 ZM 212.979 306.412 L 212.979 292.302 L 215.219 292.052 L 215.219 306.412 L 212.979 306.412 Z M 212.609 288.292 C 212.609 287.865 212.756 287.509 213.049 287.222 C 213.336 286.929 213.692 286.782 214.119 286.782 C 214.572 286.782 214.952 286.929 215.259 287.222 C 215.566 287.509 215.719 287.865 215.719 288.292 C 215.719 288.725 215.566 289.085 215.259 289.372 C 214.952 289.665 214.572 289.812 214.119 289.812 C 213.692 289.812 213.336 289.665 213.049 289.372 C 212.756 289.085 212.609 288.725 212.609 288.292 ZM 219.268 306.412 L 219.268 294.872 C 219.268 294.239 219.215 293.475 219.108 292.582 L 221.208 292.302 L 221.508 294.062 C 222.015 293.689 222.511 293.362 222.998 293.082 C 223.485 292.802 224.008 292.559 224.568 292.352 C 225.128 292.152 225.695 292.052 226.268 292.052 C 227.201 292.052 227.941 292.215 228.488 292.542 C 229.028 292.869 229.428 293.422 229.688 294.202 C 230.455 293.662 231.251 293.169 232.078 292.722 C 232.911 292.275 233.775 292.052 234.668 292.052 C 235.361 292.052 235.951 292.139 236.438 292.312 C 236.925 292.492 237.315 292.785 237.608 293.192 C 237.908 293.605 238.125 294.149 238.258 294.822 C 238.385 295.495 238.448 296.335 238.448 297.342 L 238.448 306.412 L 236.208 306.412 L 236.208 297.592 C 236.208 297.032 236.201 296.532 236.188 296.092 C 236.168 295.652 236.101 295.279 235.988 294.972 C 235.875 294.665 235.691 294.429 235.438 294.262 C 235.191 294.095 234.835 294.012 234.368 294.012 C 233.935 294.012 233.528 294.072 233.148 294.192 C 232.761 294.312 232.365 294.485 231.958 294.712 C 231.545 294.932 230.908 295.389 230.048 296.082 L 230.048 306.412 L 227.808 306.412 L 227.808 297.592 C 227.808 297.032 227.801 296.532 227.788 296.092 C 227.768 295.652 227.701 295.279 227.588 294.972 C 227.475 294.665 227.291 294.429 227.038 294.262 C 226.791 294.095 226.435 294.012 225.968 294.012 C 225.481 294.012 224.975 294.112 224.448 294.312 C 223.928 294.519 223.435 294.762 222.968 295.042 C 222.501 295.322 222.015 295.649 221.508 296.022 L 221.508 306.412 L 219.268 306.412 ZM 252.383 304.202 L 252.803 306.072 C 252.377 306.205 251.933 306.319 251.473 306.412 C 251.02 306.505 250.517 306.589 249.963 306.662 C 249.41 306.735 248.837 306.772 248.243 306.772 C 247.31 306.772 246.44 306.642 245.633 306.382 C 244.833 306.122 244.133 305.702 243.533 305.122 C 242.94 304.542 242.47 303.792 242.123 302.872 C 241.777 301.945 241.603 300.812 241.603 299.472 C 241.603 298.259 241.773 297.189 242.113 296.262 C 242.447 295.335 242.907 294.562 243.493 293.942 C 244.08 293.315 244.77 292.842 245.563 292.522 C 246.357 292.209 247.22 292.052 248.153 292.052 C 249.073 292.052 249.867 292.229 250.533 292.582 C 251.207 292.935 251.763 293.415 252.203 294.022 C 252.643 294.629 252.97 295.339 253.183 296.152 C 253.397 296.965 253.503 297.819 253.503 298.712 L 253.083 299.942 L 244.043 299.942 C 244.043 300.522 244.117 301.102 244.263 301.682 C 244.417 302.262 244.673 302.785 245.033 303.252 C 245.4 303.719 245.877 304.095 246.463 304.382 C 247.05 304.669 247.783 304.812 248.663 304.812 C 249.223 304.812 249.737 304.782 250.203 304.722 C 250.67 304.655 251.077 304.579 251.423 304.492 C 251.763 304.412 252.083 304.315 252.383 304.202 Z M 244.123 298.152 L 251.183 298.152 C 251.183 298.019 251.153 297.729 251.093 297.282 C 251.04 296.835 250.91 296.369 250.703 295.882 C 250.497 295.395 250.18 294.962 249.753 294.582 C 249.327 294.202 248.757 294.012 248.043 294.012 C 247.263 294.012 246.62 294.175 246.113 294.502 C 245.607 294.829 245.207 295.215 244.913 295.662 C 244.613 296.109 244.407 296.565 244.293 297.032 C 244.18 297.499 244.123 297.872 244.123 298.152 ZM 256.555 306.412 L 256.555 285.442 L 258.795 285.192 L 258.795 294.092 C 259.355 293.719 259.908 293.392 260.455 293.112 C 261.008 292.832 261.575 292.585 262.155 292.372 C 262.728 292.159 263.288 292.052 263.835 292.052 C 264.595 292.052 265.231 292.139 265.745 292.312 C 266.258 292.492 266.675 292.785 266.995 293.192 C 267.315 293.605 267.545 294.149 267.685 294.822 C 267.825 295.495 267.895 296.335 267.895 297.342 L 267.895 306.412 L 265.655 306.412 L 265.655 297.592 C 265.655 297.032 265.645 296.532 265.625 296.092 C 265.605 295.652 265.525 295.279 265.385 294.972 C 265.245 294.665 265.031 294.429 264.745 294.262 C 264.451 294.095 264.045 294.012 263.525 294.012 C 263.038 294.012 262.515 294.119 261.955 294.332 C 261.395 294.545 260.861 294.792 260.355 295.072 C 259.855 295.352 259.335 295.679 258.795 296.052 L 258.795 306.412 L 256.555 306.412 ZM 281.825 304.202 L 282.245 306.072 C 281.819 306.205 281.375 306.319 280.915 306.412 C 280.462 306.505 279.959 306.589 279.405 306.662 C 278.852 306.735 278.279 306.772 277.685 306.772 C 276.752 306.772 275.882 306.642 275.075 306.382 C 274.275 306.122 273.575 305.702 272.975 305.122 C 272.382 304.542 271.912 303.792 271.565 302.872 C 271.219 301.945 271.045 300.812 271.045 299.472 C 271.045 298.259 271.215 297.189 271.555 296.262 C 271.889 295.335 272.349 294.562 272.935 293.942 C 273.522 293.315 274.212 292.842 275.005 292.522 C 275.799 292.209 276.662 292.052 277.595 292.052 C 278.515 292.052 279.309 292.229 279.975 292.582 C 280.649 292.935 281.205 293.415 281.645 294.022 C 282.085 294.629 282.412 295.339 282.625 296.152 C 282.839 296.965 282.945 297.819 282.945 298.712 L 282.525 299.942 L 273.485 299.942 C 273.485 300.522 273.559 301.102 273.705 301.682 C 273.859 302.262 274.115 302.785 274.475 303.252 C 274.842 303.719 275.319 304.095 275.905 304.382 C 276.492 304.669 277.225 304.812 278.105 304.812 C 278.665 304.812 279.179 304.782 279.645 304.722 C 280.112 304.655 280.519 304.579 280.865 304.492 C 281.205 304.412 281.525 304.315 281.825 304.202 Z M 273.565 298.152 L 280.625 298.152 C 280.625 298.019 280.595 297.729 280.535 297.282 C 280.482 296.835 280.352 296.369 280.145 295.882 C 279.939 295.395 279.622 294.962 279.195 294.582 C 278.769 294.202 278.199 294.012 277.485 294.012 C 276.705 294.012 276.062 294.175 275.555 294.502 C 275.049 294.829 274.649 295.215 274.355 295.662 C 274.055 296.109 273.849 296.565 273.735 297.032 C 273.622 297.499 273.565 297.872 273.565 298.152 ZM 286.017 306.412 L 286.017 295.132 C 286.037 294.739 285.99 293.889 285.877 292.582 L 287.957 292.302 L 288.257 294.092 C 288.817 293.719 289.374 293.392 289.927 293.112 C 290.48 292.832 291.044 292.585 291.617 292.372 C 292.197 292.159 292.757 292.052 293.297 292.052 C 294.064 292.052 294.704 292.139 295.217 292.312 C 295.73 292.492 296.147 292.785 296.467 293.192 C 296.78 293.605 297.007 294.149 297.147 294.822 C 297.287 295.495 297.357 296.335 297.357 297.342 L 297.357 306.412 L 295.117 306.412 L 295.117 297.592 C 295.117 297.032 295.11 296.532 295.097 296.092 C 295.077 295.652 294.997 295.279 294.857 294.972 C 294.717 294.665 294.5 294.429 294.207 294.262 C 293.92 294.095 293.517 294.012 292.997 294.012 C 292.51 294.012 291.997 294.119 291.457 294.332 C 290.91 294.545 290.377 294.792 289.857 295.072 C 289.337 295.352 288.804 295.679 288.257 296.052 L 288.257 306.412 L 286.017 306.412 ZM 303.596 306.412 L 299.786 292.332 L 302.146 292.332 L 303.796 298.682 C 303.942 299.222 304.076 299.795 304.196 300.402 C 304.322 301.009 304.439 301.575 304.546 302.102 C 304.659 302.715 304.782 303.322 304.916 303.922 L 304.946 303.922 C 305.072 303.322 305.219 302.715 305.386 302.102 C 305.539 301.575 305.699 301.009 305.866 300.402 C 306.032 299.795 306.199 299.222 306.366 298.682 L 308.356 292.332 L 311.356 292.332 L 312.946 298.682 C 313.079 299.222 313.216 299.795 313.356 300.402 C 313.496 301.009 313.612 301.575 313.706 302.102 C 313.819 302.715 313.932 303.322 314.046 303.922 L 314.066 303.922 C 314.239 303.302 314.419 302.685 314.606 302.072 C 314.752 301.552 314.919 300.989 315.106 300.382 C 315.292 299.775 315.469 299.209 315.636 298.682 L 317.596 292.332 L 319.926 292.332 L 315.306 306.412 L 312.806 306.412 L 310.796 298.682 C 310.609 297.975 310.456 297.335 310.336 296.762 C 310.209 296.195 310.099 295.715 310.006 295.322 C 309.912 294.855 309.829 294.445 309.756 294.092 L 309.706 294.092 C 309.626 294.445 309.532 294.855 309.426 295.322 C 309.332 295.715 309.199 296.195 309.026 296.762 C 308.859 297.335 308.672 297.975 308.466 298.682 L 306.086 306.412 L 303.596 306.412 ZM 329.996 303.132 L 329.996 299.942 C 329.623 299.962 329.266 299.982 328.926 300.002 C 328.593 300.022 328.263 300.045 327.936 300.072 C 327.609 300.099 327.316 300.132 327.056 300.172 C 325.709 300.339 324.756 300.632 324.196 301.052 C 323.636 301.472 323.356 302.072 323.356 302.852 C 323.356 303.505 323.556 303.995 323.956 304.322 C 324.356 304.649 324.883 304.812 325.536 304.812 C 326.436 304.812 327.236 304.659 327.936 304.352 C 328.636 304.045 329.323 303.639 329.996 303.132 Z M 330.246 306.632 L 329.966 305.092 C 329.086 305.599 328.269 306.005 327.516 306.312 C 326.756 306.619 325.939 306.772 325.066 306.772 C 323.813 306.772 322.819 306.469 322.086 305.862 C 321.346 305.255 320.976 304.252 320.976 302.852 C 320.976 302.125 321.163 301.492 321.536 300.952 C 321.909 300.412 322.399 299.959 323.006 299.592 C 323.613 299.232 324.299 298.949 325.066 298.742 C 325.833 298.535 326.616 298.405 327.416 298.352 C 327.749 298.312 328.189 298.279 328.736 298.252 C 329.276 298.225 329.696 298.202 329.996 298.182 C 329.996 297.529 329.976 296.945 329.936 296.432 C 329.896 295.919 329.783 295.479 329.596 295.112 C 329.409 294.752 329.136 294.479 328.776 294.292 C 328.409 294.105 327.889 294.012 327.216 294.012 C 326.676 294.012 326.156 294.042 325.656 294.102 C 325.149 294.169 324.699 294.239 324.306 294.312 C 323.839 294.405 323.409 294.509 323.016 294.622 L 322.576 292.692 C 323.043 292.579 323.546 292.475 324.086 292.382 C 324.553 292.289 325.093 292.209 325.706 292.142 C 326.326 292.082 326.989 292.052 327.696 292.052 C 328.649 292.052 329.419 292.192 330.006 292.472 C 330.593 292.752 331.049 293.129 331.376 293.602 C 331.703 294.075 331.926 294.615 332.046 295.222 C 332.173 295.829 332.236 296.469 332.236 297.142 L 332.236 303.862 C 332.236 304.122 332.239 304.399 332.246 304.692 C 332.253 304.979 332.273 305.262 332.306 305.542 C 332.333 305.822 332.363 306.112 332.396 306.412 L 330.246 306.632 ZM 336.177 306.412 L 336.177 285.442 L 338.417 285.192 L 338.417 306.412 L 336.177 306.412 Z" transform="matrix(1, 0, 0, 1, 0, 0)" style="fill: rgb(51, 51, 51); white-space: pre;"/>
    <path d="M 191.365 304.81 C 190.614 305.139 189.711 305.312 188.764 305.312 C 188.037 305.312 187.34 305.096 186.868 304.709 C 186.375 304.307 186.084 303.599 186.084 302.852 C 186.084 301.966 186.47 301.143 187.124 300.652 C 187.752 300.181 188.829 299.853 190.215 299.677 C 190.485 299.635 190.788 299.601 191.123 299.574 C 191.453 299.546 191.789 299.523 192.125 299.503 C 192.465 299.483 192.824 299.463 193.197 299.443 L 193.724 299.414 L 193.724 303.382 L 193.525 303.531 C 192.829 304.054 192.092 304.491 191.365 304.81 Z M 192.724 302.88 L 192.724 300.47 C 192.539 300.48 192.523 300.481 192.184 300.501 C 191.853 300.521 191.529 300.544 191.205 300.57 C 190.886 300.597 190.61 300.628 190.36 300.666 C 189.056 300.824 188.216 301.083 187.724 301.452 C 187.258 301.801 187.084 302.178 187.084 302.852 C 187.084 303.411 187.193 303.683 187.5 303.935 C 187.828 304.202 188.185 304.312 188.764 304.312 C 189.617 304.312 190.314 304.179 190.963 303.894 C 191.636 303.599 192.143 303.3 192.724 302.88 Z M 192.827 305.869 C 192.159 306.23 191.701 306.461 190.931 306.776 C 190.124 307.097 189.213 307.272 188.294 307.272 C 186.968 307.272 185.816 306.901 184.996 306.248 C 184.181 305.534 183.704 304.339 183.704 302.852 C 183.704 302.054 183.935 301.272 184.353 300.668 C 184.757 300.083 185.332 299.559 185.979 299.162 C 186.618 298.786 187.366 298.475 188.164 298.259 C 188.955 298.046 189.777 297.91 190.597 297.854 C 190.942 297.813 191.386 297.78 191.939 297.753 C 192.478 297.726 192.497 297.724 192.72 297.712 C 192.713 297.258 192.705 296.973 192.666 296.471 C 192.629 296.001 192.547 295.657 192.38 295.341 C 192.238 295.044 192.073 294.878 191.775 294.736 C 191.478 294.573 191.073 294.512 190.444 294.512 C 189.918 294.512 189.43 294.54 188.947 294.598 C 188.447 294.664 188.013 294.731 187.628 294.803 C 187.173 294.894 186.765 294.992 186.382 295.103 L 185.874 295.249 L 185.207 292.322 L 185.686 292.206 C 186.162 292.091 186.677 291.985 187.223 291.89 C 187.702 291.795 188.263 291.713 188.886 291.644 C 189.519 291.583 190.206 291.552 190.924 291.552 C 191.922 291.552 192.803 291.713 193.449 292.021 C 194.091 292.327 194.65 292.789 195.015 293.318 C 195.372 293.834 195.629 294.466 195.763 295.12 C 195.894 295.753 195.963 296.445 195.964 297.142 L 195.964 303.862 C 195.964 304.119 195.967 304.39 195.974 304.68 C 195.98 304.955 196 305.226 196.032 305.494 C 196.059 305.772 196.088 306.059 196.121 306.357 L 196.176 306.858 L 193.065 307.177 Z M 195.074 305.966 C 195.061 305.84 195.064 305.875 195.037 305.595 C 195.003 305.305 194.982 305.003 194.974 304.704 C 194.967 304.408 194.964 304.125 194.964 303.862 L 194.964 297.142 C 194.965 296.494 194.907 295.905 194.785 295.324 C 194.679 294.764 194.49 294.316 194.193 293.886 C 193.904 293.469 193.551 293.177 193.019 292.923 C 192.491 292.672 191.832 292.552 190.924 292.552 C 190.228 292.552 189.592 292.58 188.985 292.639 C 188.383 292.705 187.866 292.781 187.412 292.872 C 186.88 292.964 186.718 292.999 186.402 293.068 L 186.616 294.005 C 186.877 293.94 186.959 293.917 187.436 293.822 C 187.837 293.747 188.306 293.674 188.818 293.606 C 189.334 293.545 189.89 293.512 190.444 293.512 C 191.161 293.512 191.795 293.636 192.231 293.847 C 192.653 294.079 193.036 294.46 193.268 294.882 C 193.474 295.3 193.619 295.837 193.662 296.393 C 193.703 296.917 193.724 297.52 193.724 298.182 L 193.724 298.65 L 193.257 298.681 C 192.954 298.701 192.53 298.724 191.989 298.751 C 191.448 298.778 191.026 298.81 190.704 298.848 C 189.928 298.899 189.167 299.024 188.424 299.225 C 187.688 299.423 187.064 299.678 186.489 300.022 C 185.922 300.359 185.517 300.741 185.175 301.236 C 184.847 301.712 184.704 302.196 184.704 302.852 C 184.704 304.165 184.967 304.975 185.631 305.475 C 186.278 306.036 187.114 306.272 188.294 306.272 C 189.121 306.272 189.844 306.141 190.557 305.848 C 191.293 305.549 192.078 305.159 192.944 304.659 L 193.559 304.304 L 193.883 306.088 Z M 196.836 291.832 L 200.37 291.832 L 200.486 292.169 L 203.914 302.137 L 204.075 302.708 L 204.253 302.1 L 208.014 291.832 L 211.443 291.832 L 205.595 306.912 L 202.384 306.912 Z M 204.911 305.912 L 209.983 292.832 L 208.712 292.832 L 205.198 302.429 L 204.447 304.982 L 203.674 304.982 L 202.955 302.421 L 199.656 292.832 L 198.27 292.832 L 203.082 305.912 Z M 212.479 291.855 L 215.719 291.493 L 215.719 306.912 L 212.479 306.912 Z M 214.719 305.912 L 214.719 292.611 L 213.479 292.749 L 213.479 305.912 Z M 212.109 288.292 C 212.109 287.77 212.348 287.239 212.696 286.869 C 213.066 286.519 213.597 286.282 214.119 286.282 C 214.662 286.282 215.213 286.514 215.602 286.858 C 215.967 287.229 216.219 287.766 216.219 288.292 C 216.219 288.823 215.968 289.364 215.602 289.736 C 215.213 290.08 214.662 290.312 214.119 290.312 C 213.597 290.312 213.066 290.073 212.696 289.725 C 212.346 289.354 212.109 288.82 212.109 288.292 Z M 213.399 289.015 C 213.603 289.252 213.787 289.312 214.119 289.312 C 214.482 289.312 214.689 289.251 214.914 289.01 C 215.161 288.808 215.219 288.627 215.219 288.292 C 215.219 287.964 215.166 287.79 214.918 287.587 C 214.693 287.347 214.482 287.282 214.119 287.282 C 213.787 287.282 213.61 287.335 213.406 287.572 C 213.169 287.776 213.109 287.96 213.109 288.292 C 213.109 288.63 213.162 288.812 213.399 289.015 Z M 218.768 294.872 C 218.769 294.256 218.717 293.522 218.612 292.641 L 218.553 292.152 L 221.62 291.743 L 221.868 293.198 C 222.165 292.999 222.249 292.936 222.749 292.649 C 223.255 292.358 223.821 292.096 224.4 291.881 C 225 291.67 225.652 291.552 226.268 291.552 C 227.255 291.552 228.125 291.758 228.747 292.114 C 229.36 292.509 229.61 292.874 229.906 293.447 C 230.686 292.898 231.002 292.736 231.842 292.281 C 232.73 291.813 233.713 291.552 234.668 291.552 C 235.397 291.552 236.077 291.658 236.611 291.843 C 237.162 292.058 237.668 292.439 238.013 292.899 C 238.343 293.366 238.603 294.012 238.749 294.729 C 238.88 295.43 238.947 296.316 238.948 297.342 L 238.948 306.912 L 235.708 306.912 L 235.708 297.592 C 235.708 297.035 235.701 296.545 235.688 296.109 C 235.672 295.705 235.617 295.411 235.519 295.145 C 235.432 294.909 235.352 294.788 235.158 294.676 C 234.994 294.546 234.778 294.512 234.368 294.512 C 233.971 294.512 233.637 294.558 233.296 294.67 C 232.935 294.78 232.578 294.937 232.193 295.153 C 231.808 295.356 231.299 295.724 230.548 296.322 L 230.548 306.912 L 227.308 306.912 L 227.308 297.592 C 227.308 297.036 227.301 296.545 227.288 296.109 C 227.272 295.705 227.217 295.411 227.119 295.145 C 227.032 294.909 226.951 294.788 226.758 294.676 C 226.594 294.546 226.378 294.512 225.968 294.512 C 225.529 294.512 225.115 294.59 224.631 294.777 C 224.129 294.976 223.674 295.201 223.225 295.471 C 222.769 295.744 222.431 295.972 222.008 296.276 L 222.008 306.912 L 218.768 306.912 Z M 221.008 305.912 L 221.008 295.769 L 221.212 295.619 C 221.727 295.24 222.233 294.9 222.711 294.613 C 223.195 294.323 223.725 294.062 224.263 293.847 C 224.83 293.636 225.433 293.512 225.968 293.512 C 226.492 293.512 226.986 293.643 227.316 293.847 C 227.627 294.069 227.918 294.421 228.057 294.799 C 228.185 295.147 228.264 295.596 228.287 296.069 C 228.301 296.513 228.308 297.029 228.308 297.592 L 228.308 305.912 L 229.548 305.912 L 229.548 295.843 L 229.734 295.693 C 230.605 294.991 231.277 294.511 231.718 294.274 C 232.145 294.037 232.585 293.845 232.998 293.715 C 233.417 293.586 233.899 293.512 234.368 293.512 C 234.892 293.512 235.386 293.644 235.716 293.847 C 236.027 294.069 236.318 294.421 236.457 294.799 C 236.585 295.147 236.664 295.596 236.687 296.069 C 236.701 296.513 236.708 297.029 236.708 297.592 L 236.708 305.912 L 237.948 305.912 L 237.948 297.342 C 237.949 296.354 237.89 295.56 237.767 294.915 C 237.647 294.286 237.474 293.845 237.203 293.486 C 236.963 293.133 236.689 292.927 236.266 292.781 C 235.827 292.621 235.325 292.552 234.668 292.552 C 233.837 292.552 233.092 292.737 232.314 293.163 C 231.5 293.602 230.731 294.079 229.976 294.611 L 229.417 295.004 L 229.214 294.36 C 228.988 293.648 228.697 293.23 228.23 292.97 C 227.758 292.673 227.147 292.552 226.268 292.552 C 225.738 292.552 225.256 292.634 224.736 292.823 C 224.195 293.022 223.715 293.246 223.247 293.515 C 222.773 293.788 222.301 294.099 221.804 294.465 L 221.151 294.946 L 220.796 292.861 L 219.659 293.013 C 219.731 293.716 219.767 294.222 219.768 294.872 L 219.768 305.912 Z M 253.392 306.412 L 252.952 306.549 C 252.514 306.686 252.046 306.806 251.574 306.902 C 251.111 306.996 250.591 307.083 250.028 307.158 C 249.459 307.232 248.853 307.272 248.243 307.272 C 247.273 307.272 246.325 307.127 245.478 306.858 C 244.627 306.574 243.829 306.094 243.183 305.479 C 242.553 304.853 242.024 304.011 241.655 303.047 C 241.296 302.07 241.103 300.85 241.103 299.472 C 241.103 298.22 241.291 297.065 241.643 296.091 C 241.997 295.122 242.51 294.263 243.129 293.599 C 243.757 292.937 244.539 292.402 245.38 292.057 C 246.221 291.73 247.175 291.552 248.153 291.552 C 249.127 291.552 250.038 291.764 250.766 292.14 C 251.488 292.525 252.134 293.075 252.608 293.729 C 253.076 294.375 253.439 295.171 253.667 296.025 C 253.887 296.871 254.001 297.788 254.003 298.712 L 254.003 298.795 L 253.441 300.442 L 244.561 300.442 C 244.589 300.813 244.606 301.003 244.746 301.554 C 244.883 302.088 245.095 302.521 245.427 302.944 C 245.752 303.369 246.142 303.674 246.683 303.933 C 247.208 304.199 247.831 304.312 248.663 304.312 C 249.208 304.312 249.688 304.285 250.135 304.227 C 250.59 304.161 250.978 304.089 251.308 304.005 C 251.633 303.929 251.922 303.842 252.207 303.734 L 252.745 303.53 Z M 251.541 304.978 C 251.181 305.068 250.751 305.148 250.274 305.217 C 249.791 305.279 249.238 305.312 248.663 305.312 C 247.735 305.312 246.892 305.139 246.243 304.831 C 245.613 304.516 245.049 304.07 244.64 303.561 C 244.253 303.051 243.951 302.436 243.78 301.81 C 243.628 301.201 243.545 300.554 243.543 299.942 L 243.541 299.442 L 252.725 299.442 L 253.003 298.629 C 252.999 297.799 252.907 297.059 252.699 296.279 C 252.501 295.507 252.21 294.883 251.798 294.315 C 251.392 293.755 250.928 293.346 250.301 293.025 C 249.698 292.695 249.019 292.552 248.153 292.552 C 247.265 292.552 246.496 292.687 245.749 292.986 C 245.004 293.281 244.404 293.692 243.858 294.284 C 243.305 294.86 242.897 295.548 242.583 296.431 C 242.256 297.312 242.103 298.298 242.103 299.472 C 242.103 300.774 242.258 301.819 242.591 302.696 C 242.916 303.571 243.326 304.23 243.882 304.764 C 244.436 305.308 245.039 305.67 245.787 305.906 C 246.554 306.157 247.347 306.272 248.243 306.272 C 248.821 306.272 249.361 306.238 249.898 306.166 C 250.443 306.095 250.929 306.014 251.372 305.922 C 251.82 305.832 251.941 305.798 252.212 305.724 L 252.016 304.851 C 251.861 304.897 251.895 304.894 251.541 304.978 Z M 243.807 296.913 C 243.936 296.403 244.177 295.869 244.496 295.386 C 244.825 294.897 245.298 294.439 245.842 294.082 C 246.423 293.723 247.202 293.512 248.043 293.512 C 248.836 293.512 249.572 293.778 250.086 294.209 C 250.548 294.628 250.929 295.15 251.163 295.687 C 251.381 296.204 251.528 296.733 251.589 297.216 C 251.65 297.671 251.682 297.993 251.683 298.152 L 251.687 298.652 L 243.618 298.652 L 243.623 298.152 C 243.626 297.834 243.69 297.401 243.807 296.913 Z M 244.672 297.652 L 250.637 297.652 C 250.626 297.563 250.657 297.788 250.597 297.349 C 250.552 296.939 250.439 296.534 250.243 296.078 C 250.065 295.641 249.812 295.296 249.421 294.956 C 249.082 294.626 248.678 294.512 248.043 294.512 C 247.324 294.512 246.817 294.627 246.384 294.922 C 245.916 295.219 245.589 295.532 245.331 295.937 C 245.051 296.347 244.878 296.727 244.779 297.151 C 244.67 297.597 244.697 297.505 244.672 297.652 Z M 256.055 284.995 L 259.295 284.633 L 259.295 293.185 C 259.608 292.998 259.669 292.953 260.229 292.666 C 260.795 292.38 261.387 292.122 261.981 291.903 C 262.594 291.679 263.241 291.552 263.835 291.552 C 264.629 291.552 265.351 291.656 265.911 291.84 C 266.485 292.052 267.017 292.429 267.39 292.886 C 267.743 293.355 268.025 294 268.175 294.72 C 268.321 295.423 268.394 296.314 268.395 297.342 L 268.395 306.912 L 265.155 306.912 L 265.155 297.592 C 265.155 297.037 265.145 296.548 265.126 296.115 C 265.107 295.716 265.048 295.438 264.93 295.179 C 264.822 294.942 264.721 294.814 264.496 294.695 C 264.275 294.556 263.995 294.512 263.525 294.512 C 263.088 294.512 262.655 294.601 262.133 294.799 C 261.589 295.006 261.088 295.237 260.598 295.509 C 260.109 295.782 259.746 296.011 259.295 296.316 L 259.295 306.912 L 256.055 306.912 Z M 258.295 305.912 L 258.295 295.79 L 258.511 295.641 C 259.06 295.262 259.6 294.922 260.111 294.636 C 260.633 294.348 261.201 294.084 261.777 293.865 C 262.375 293.637 262.988 293.512 263.525 293.512 C 264.095 293.512 264.625 293.633 264.992 293.827 C 265.337 294.042 265.668 294.388 265.84 294.765 C 266.002 295.12 266.103 295.588 266.124 296.069 C 266.145 296.516 266.155 297.027 266.155 297.592 L 266.155 305.912 L 267.395 305.912 L 267.395 297.342 C 267.396 296.356 267.329 295.567 267.195 294.924 C 267.065 294.298 266.888 293.857 266.601 293.5 C 266.334 293.144 266.032 292.933 265.58 292.784 C 265.113 292.623 264.561 292.552 263.835 292.552 C 263.335 292.552 262.862 292.639 262.329 292.841 C 261.763 293.048 261.221 293.284 260.682 293.558 C 260.149 293.83 259.621 294.142 259.072 294.508 L 258.295 295.026 L 258.295 285.751 L 257.055 285.889 L 257.055 305.912 Z M 282.834 306.412 L 282.394 306.549 C 281.956 306.686 281.487 306.806 281.015 306.902 C 280.553 306.997 280.033 307.083 279.47 307.158 C 278.901 307.232 278.295 307.272 277.685 307.272 C 276.715 307.272 275.767 307.127 274.92 306.858 C 274.069 306.574 273.271 306.094 272.625 305.479 C 271.995 304.853 271.466 304.011 271.097 303.047 C 270.738 302.07 270.545 300.85 270.545 299.472 C 270.545 298.22 270.733 297.065 271.085 296.091 C 271.439 295.121 271.952 294.263 272.571 293.599 C 273.199 292.937 273.981 292.402 274.822 292.057 C 275.663 291.73 276.617 291.552 277.595 291.552 C 278.569 291.552 279.48 291.764 280.208 292.14 C 280.929 292.525 281.576 293.075 282.05 293.729 C 282.518 294.375 282.881 295.171 283.109 296.025 C 283.329 296.871 283.443 297.788 283.445 298.712 L 283.445 298.795 L 282.883 300.442 L 274.003 300.442 C 274.031 300.813 274.048 301.003 274.188 301.554 C 274.325 302.088 274.535 302.519 274.868 302.943 C 275.193 303.368 275.584 303.674 276.125 303.933 C 276.65 304.199 277.273 304.312 278.105 304.312 C 278.65 304.312 279.13 304.285 279.577 304.227 C 280.034 304.161 280.42 304.089 280.75 304.005 C 281.075 303.929 281.364 303.842 281.649 303.734 L 282.187 303.53 Z M 280.983 304.978 C 280.623 305.068 280.193 305.148 279.716 305.217 C 279.233 305.279 278.68 305.312 278.105 305.312 C 277.177 305.312 276.334 305.139 275.685 304.831 C 275.055 304.516 274.491 304.07 274.082 303.561 C 273.695 303.051 273.393 302.436 273.222 301.81 C 273.07 301.201 272.987 300.554 272.985 299.942 L 272.983 299.442 L 282.167 299.442 L 282.445 298.629 C 282.441 297.799 282.349 297.059 282.141 296.279 C 281.943 295.507 281.652 294.883 281.24 294.315 C 280.834 293.755 280.37 293.346 279.743 293.025 C 279.14 292.695 278.461 292.552 277.595 292.552 C 276.707 292.552 275.935 292.688 275.188 292.987 C 274.443 293.282 273.846 293.692 273.3 294.284 C 272.747 294.86 272.339 295.548 272.025 296.431 C 271.698 297.312 271.545 298.298 271.545 299.472 C 271.545 300.774 271.7 301.819 272.033 302.696 C 272.358 303.571 272.768 304.23 273.324 304.764 C 273.878 305.308 274.481 305.67 275.229 305.906 C 275.996 306.157 276.789 306.272 277.685 306.272 C 278.263 306.272 278.803 306.238 279.34 306.166 C 279.885 306.095 280.371 306.014 280.814 305.922 C 281.262 305.832 281.383 305.798 281.654 305.724 L 281.458 304.851 C 281.303 304.897 281.339 304.894 280.983 304.978 Z M 273.249 296.913 C 273.378 296.403 273.619 295.869 273.938 295.386 C 274.267 294.897 274.74 294.439 275.284 294.082 C 275.865 293.723 276.644 293.512 277.485 293.512 C 278.278 293.512 279.014 293.778 279.528 294.209 C 279.99 294.628 280.371 295.15 280.605 295.687 C 280.823 296.204 280.97 296.733 281.031 297.216 C 281.092 297.671 281.124 297.993 281.125 298.152 L 281.129 298.652 L 273.061 298.652 L 273.065 298.152 C 273.068 297.834 273.132 297.401 273.249 296.913 Z M 274.114 297.652 L 280.079 297.652 C 280.068 297.563 280.099 297.788 280.039 297.349 C 279.994 296.939 279.881 296.534 279.685 296.078 C 279.507 295.641 279.254 295.296 278.863 294.956 C 278.524 294.626 278.12 294.512 277.485 294.512 C 276.766 294.512 276.259 294.627 275.826 294.922 C 275.358 295.219 275.031 295.532 274.773 295.937 C 274.493 296.347 274.32 296.727 274.221 297.15 C 274.112 297.595 274.139 297.505 274.114 297.652 Z M 285.517 306.412 L 285.518 295.107 C 285.538 294.74 285.491 293.924 285.379 292.625 L 285.338 292.15 L 288.37 291.742 L 288.625 293.265 C 288.986 293.047 289.134 292.953 289.701 292.666 C 290.267 292.38 290.858 292.121 291.445 291.903 C 292.064 291.679 292.71 291.552 293.297 291.552 C 294.098 291.552 294.823 291.656 295.383 291.84 C 295.957 292.052 296.493 292.433 296.866 292.89 C 297.21 293.358 297.487 294.001 297.637 294.72 C 297.783 295.423 297.856 296.314 297.857 297.342 L 297.857 306.912 L 294.617 306.912 L 294.617 297.592 C 294.617 297.036 294.61 296.543 294.597 296.107 C 294.582 295.712 294.52 295.438 294.402 295.179 C 294.294 294.943 294.188 294.813 293.956 294.694 C 293.744 294.556 293.467 294.512 292.997 294.512 C 292.561 294.512 292.138 294.597 291.638 294.798 C 291.106 295.005 290.601 295.239 290.094 295.512 C 289.586 295.786 289.215 296.014 288.757 296.318 L 288.757 306.912 L 285.517 306.912 Z M 287.757 305.912 L 287.757 295.788 L 287.975 295.639 C 288.532 295.259 289.088 294.918 289.62 294.632 C 290.153 294.345 290.714 294.085 291.276 293.866 C 291.856 293.641 292.459 293.512 292.997 293.512 C 293.567 293.512 294.094 293.634 294.457 293.829 C 294.809 294.044 295.14 294.387 295.312 294.765 C 295.474 295.12 295.571 295.588 295.596 296.069 C 295.61 296.513 295.617 297.028 295.617 297.592 L 295.617 305.912 L 296.857 305.912 L 296.857 297.342 C 296.858 296.356 296.791 295.567 296.657 294.924 C 296.527 294.297 296.354 293.857 296.072 293.499 C 295.805 293.143 295.504 292.933 295.052 292.784 C 294.586 292.623 294.03 292.552 293.297 292.552 C 292.804 292.552 292.33 292.639 291.789 292.841 C 291.23 293.049 290.693 293.284 290.153 293.558 C 289.614 293.831 289.082 294.143 288.534 294.508 L 287.892 294.937 L 287.544 292.862 L 286.415 293.014 C 286.499 294.064 286.535 294.718 286.517 295.143 L 286.517 305.912 Z M 299.133 291.832 L 302.533 291.832 L 304.279 298.554 C 304.427 299.102 304.564 299.688 304.686 300.303 C 304.789 300.798 304.887 301.271 304.977 301.715 C 305.108 301.262 305.243 300.781 305.384 300.27 C 305.551 299.659 305.721 299.076 305.889 298.532 L 307.989 291.832 L 311.746 291.832 L 311.841 292.211 L 313.432 298.562 C 313.565 299.104 313.703 299.681 313.843 300.29 C 313.967 300.825 314.073 301.333 314.161 301.809 C 314.299 301.32 314.455 300.797 314.628 300.235 C 314.814 299.627 314.992 299.06 315.159 298.533 L 317.227 291.832 L 320.616 291.832 L 315.668 306.912 L 312.419 306.912 L 310.312 298.809 C 310.124 298.096 309.969 297.447 309.847 296.868 C 309.797 296.644 309.749 296.431 309.704 296.231 C 309.644 296.441 309.578 296.666 309.505 296.905 C 309.338 297.478 309.15 298.122 308.944 298.829 L 306.455 306.912 L 303.213 306.912 Z M 305.717 305.912 L 307.987 298.538 C 308.193 297.833 308.379 297.195 308.546 296.622 C 308.717 296.061 308.847 295.592 308.939 295.209 C 309.045 294.742 309.139 294.334 309.218 293.981 L 309.307 293.592 L 310.163 293.592 L 310.246 293.991 C 310.319 294.345 310.401 294.751 310.495 295.215 C 310.588 295.608 310.697 296.084 310.824 296.653 C 310.942 297.219 311.094 297.853 311.279 298.554 L 313.193 305.912 L 314.944 305.912 L 319.236 292.832 L 317.965 292.832 L 316.114 298.829 C 315.947 299.356 315.77 299.923 315.584 300.528 C 315.398 301.133 315.232 301.691 315.087 302.207 C 314.901 302.817 314.72 303.439 314.548 304.056 L 314.446 304.422 L 313.632 304.422 L 313.555 304.015 C 313.441 303.414 313.327 302.806 313.214 302.193 C 313.122 301.672 313.007 301.115 312.869 300.514 C 312.729 299.909 312.593 299.341 312.461 298.802 L 310.966 292.832 L 308.723 292.832 L 306.843 298.831 C 306.678 299.366 306.513 299.931 306.348 300.534 C 306.181 301.143 306.02 301.71 305.867 302.237 C 305.703 302.842 305.56 303.432 305.435 304.025 L 305.352 304.422 L 304.515 304.422 L 304.428 304.031 C 304.293 303.426 304.169 302.813 304.055 302.197 C 303.949 301.672 303.832 301.11 303.706 300.504 C 303.588 299.905 303.457 299.344 303.313 298.812 L 301.759 292.832 L 300.439 292.832 L 303.979 305.912 Z M 328.137 304.81 C 327.386 305.139 326.483 305.312 325.536 305.312 C 324.809 305.312 324.112 305.096 323.64 304.709 C 323.147 304.307 322.856 303.599 322.856 302.852 C 322.856 301.966 323.242 301.143 323.896 300.652 C 324.524 300.181 325.601 299.853 326.987 299.677 C 327.255 299.636 327.56 299.601 327.895 299.574 C 328.225 299.546 328.561 299.523 328.897 299.503 C 329.237 299.483 329.596 299.463 329.969 299.443 L 330.496 299.414 L 330.496 303.382 L 330.297 303.531 C 329.601 304.054 328.864 304.491 328.137 304.81 Z M 329.496 302.88 L 329.496 300.47 C 329.311 300.48 329.295 300.481 328.956 300.501 C 328.625 300.521 328.301 300.544 327.977 300.57 C 327.658 300.597 327.382 300.628 327.132 300.666 C 325.828 300.824 324.988 301.083 324.496 301.452 C 324.03 301.801 323.856 302.178 323.856 302.852 C 323.856 303.411 323.965 303.683 324.272 303.935 C 324.6 304.202 324.957 304.312 325.536 304.312 C 326.389 304.312 327.086 304.179 327.735 303.894 C 328.408 303.599 328.915 303.3 329.496 302.88 Z M 329.599 305.869 C 328.931 306.23 328.473 306.461 327.703 306.776 C 326.896 307.097 325.985 307.272 325.066 307.272 C 323.74 307.272 322.588 306.901 321.768 306.248 C 320.953 305.534 320.476 304.339 320.476 302.852 C 320.476 302.054 320.707 301.272 321.125 300.668 C 321.529 300.083 322.104 299.559 322.751 299.162 C 323.39 298.786 324.138 298.475 324.936 298.259 C 325.727 298.046 326.549 297.91 327.369 297.854 C 327.714 297.813 328.158 297.78 328.711 297.753 C 329.25 297.726 329.269 297.724 329.492 297.712 C 329.485 297.258 329.477 296.973 329.438 296.471 C 329.401 296.001 329.319 295.657 329.152 295.341 C 329.01 295.043 328.845 294.878 328.547 294.736 C 328.25 294.574 327.845 294.512 327.216 294.512 C 326.69 294.512 326.202 294.54 325.719 294.598 C 325.219 294.664 324.785 294.731 324.4 294.803 C 323.945 294.894 323.537 294.992 323.154 295.103 L 322.646 295.249 L 321.979 292.322 L 322.458 292.206 C 322.934 292.091 323.449 291.985 323.995 291.89 C 324.474 291.795 325.035 291.713 325.658 291.644 C 326.291 291.583 326.978 291.552 327.696 291.552 C 328.694 291.552 329.575 291.713 330.221 292.021 C 330.863 292.327 331.422 292.789 331.787 293.318 C 332.144 293.834 332.401 294.466 332.535 295.12 C 332.666 295.753 332.735 296.445 332.736 297.142 L 332.736 303.862 C 332.736 304.119 332.739 304.39 332.746 304.68 C 332.752 304.955 332.772 305.226 332.804 305.494 C 332.831 305.772 332.86 306.059 332.893 306.357 L 332.948 306.858 L 329.837 307.177 Z M 331.846 305.966 C 331.833 305.84 331.836 305.875 331.809 305.595 C 331.775 305.305 331.754 305.003 331.746 304.704 C 331.739 304.408 331.736 304.125 331.736 303.862 L 331.736 297.142 C 331.737 296.494 331.679 295.905 331.557 295.324 C 331.451 294.764 331.262 294.316 330.965 293.886 C 330.676 293.469 330.323 293.177 329.791 292.923 C 329.263 292.672 328.604 292.552 327.696 292.552 C 327 292.552 326.364 292.58 325.757 292.639 C 325.155 292.705 324.638 292.781 324.184 292.872 C 323.652 292.964 323.49 292.999 323.174 293.068 L 323.388 294.005 C 323.649 293.94 323.731 293.917 324.208 293.822 C 324.609 293.747 325.078 293.674 325.591 293.606 C 326.106 293.545 326.662 293.512 327.216 293.512 C 327.933 293.512 328.567 293.636 329.003 293.847 C 329.425 294.079 329.808 294.46 330.04 294.882 C 330.246 295.3 330.391 295.837 330.435 296.393 C 330.475 296.917 330.496 297.52 330.496 298.182 L 330.496 298.65 L 330.029 298.681 C 329.726 298.701 329.302 298.724 328.761 298.751 C 328.22 298.778 327.798 298.81 327.476 298.848 C 326.7 298.899 325.939 299.024 325.196 299.225 C 324.46 299.423 323.836 299.678 323.261 300.022 C 322.694 300.359 322.289 300.741 321.947 301.236 C 321.619 301.712 321.476 302.196 321.476 302.852 C 321.476 304.165 321.739 304.975 322.403 305.475 C 323.05 306.036 323.886 306.272 325.066 306.272 C 325.893 306.272 326.616 306.141 327.329 305.848 C 328.065 305.549 328.85 305.159 329.716 304.659 L 330.331 304.304 L 330.655 306.088 Z M 335.677 284.995 L 338.917 284.633 L 338.917 306.912 L 335.677 306.912 Z M 337.917 305.912 L 337.917 285.751 L 336.677 285.889 L 336.677 305.912 Z" style="fill: none;" transform="matrix(1, 0, 0, 1, 0, 0)"/>
    <path d="M 191.365 304.81 C 190.614 305.139 189.711 305.312 188.764 305.312 C 188.037 305.312 187.34 305.096 186.868 304.709 C 186.375 304.307 186.084 303.599 186.084 302.852 C 186.084 301.966 186.47 301.143 187.124 300.652 C 187.752 300.181 188.829 299.853 190.215 299.677 C 190.485 299.635 190.788 299.601 191.123 299.574 C 191.453 299.546 191.789 299.523 192.125 299.503 C 192.465 299.483 192.824 299.463 193.197 299.443 L 193.724 299.414 L 193.724 303.382 L 193.525 303.531 C 192.829 304.054 192.092 304.491 191.365 304.81 Z M 192.724 302.88 L 192.724 300.47 C 192.539 300.48 192.523 300.481 192.184 300.501 C 191.853 300.521 191.529 300.544 191.205 300.57 C 190.886 300.597 190.61 300.628 190.36 300.666 C 189.056 300.824 188.216 301.083 187.724 301.452 C 187.258 301.801 187.084 302.178 187.084 302.852 C 187.084 303.411 187.193 303.683 187.5 303.935 C 187.828 304.202 188.185 304.312 188.764 304.312 C 189.617 304.312 190.314 304.179 190.963 303.894 C 191.636 303.599 192.143 303.3 192.724 302.88 Z M 192.827 305.869 C 192.159 306.23 191.701 306.461 190.931 306.776 C 190.124 307.097 189.213 307.272 188.294 307.272 C 186.968 307.272 185.816 306.901 184.996 306.248 C 184.181 305.534 183.704 304.339 183.704 302.852 C 183.704 302.054 183.935 301.272 184.353 300.668 C 184.757 300.083 185.332 299.559 185.979 299.162 C 186.618 298.786 187.366 298.475 188.164 298.259 C 188.955 298.046 189.777 297.91 190.597 297.854 C 190.942 297.813 191.386 297.78 191.939 297.753 C 192.478 297.726 192.497 297.724 192.72 297.712 C 192.713 297.258 192.705 296.973 192.666 296.471 C 192.629 296.001 192.547 295.657 192.38 295.341 C 192.238 295.044 192.073 294.878 191.775 294.736 C 191.478 294.573 191.073 294.512 190.444 294.512 C 189.918 294.512 189.43 294.54 188.947 294.598 C 188.447 294.664 188.013 294.731 187.628 294.803 C 187.173 294.894 186.765 294.992 186.382 295.103 L 185.874 295.249 L 185.207 292.322 L 185.686 292.206 C 186.162 292.091 186.677 291.985 187.223 291.89 C 187.702 291.795 188.263 291.713 188.886 291.644 C 189.519 291.583 190.206 291.552 190.924 291.552 C 191.922 291.552 192.803 291.713 193.449 292.021 C 194.091 292.327 194.65 292.789 195.015 293.318 C 195.372 293.834 195.629 294.466 195.763 295.12 C 195.894 295.753 195.963 296.445 195.964 297.142 L 195.964 303.862 C 195.964 304.119 195.967 304.39 195.974 304.68 C 195.98 304.955 196 305.226 196.032 305.494 C 196.059 305.772 196.088 306.059 196.121 306.357 L 196.176 306.858 L 193.065 307.177 Z M 195.074 305.966 C 195.061 305.84 195.064 305.875 195.037 305.595 C 195.003 305.305 194.982 305.003 194.974 304.704 C 194.967 304.408 194.964 304.125 194.964 303.862 L 194.964 297.142 C 194.965 296.494 194.907 295.905 194.785 295.324 C 194.679 294.764 194.49 294.316 194.193 293.886 C 193.904 293.469 193.551 293.177 193.019 292.923 C 192.491 292.672 191.832 292.552 190.924 292.552 C 190.228 292.552 189.592 292.58 188.985 292.639 C 188.383 292.705 187.866 292.781 187.412 292.872 C 186.88 292.964 186.718 292.999 186.402 293.068 L 186.616 294.005 C 186.877 293.94 186.959 293.917 187.436 293.822 C 187.837 293.747 188.306 293.674 188.818 293.606 C 189.334 293.545 189.89 293.512 190.444 293.512 C 191.161 293.512 191.795 293.636 192.231 293.847 C 192.653 294.079 193.036 294.46 193.268 294.882 C 193.474 295.3 193.619 295.837 193.662 296.393 C 193.703 296.917 193.724 297.52 193.724 298.182 L 193.724 298.65 L 193.257 298.681 C 192.954 298.701 192.53 298.724 191.989 298.751 C 191.448 298.778 191.026 298.81 190.704 298.848 C 189.928 298.899 189.167 299.024 188.424 299.225 C 187.688 299.423 187.064 299.678 186.489 300.022 C 185.922 300.359 185.517 300.741 185.175 301.236 C 184.847 301.712 184.704 302.196 184.704 302.852 C 184.704 304.165 184.967 304.975 185.631 305.475 C 186.278 306.036 187.114 306.272 188.294 306.272 C 189.121 306.272 189.844 306.141 190.557 305.848 C 191.293 305.549 192.078 305.159 192.944 304.659 L 193.559 304.304 L 193.883 306.088 Z M 196.836 291.832 L 200.37 291.832 L 200.486 292.169 L 203.914 302.137 L 204.075 302.708 L 204.253 302.1 L 208.014 291.832 L 211.443 291.832 L 205.595 306.912 L 202.384 306.912 Z M 204.911 305.912 L 209.983 292.832 L 208.712 292.832 L 205.198 302.429 L 204.447 304.982 L 203.674 304.982 L 202.955 302.421 L 199.656 292.832 L 198.27 292.832 L 203.082 305.912 Z M 212.479 291.855 L 215.719 291.493 L 215.719 306.912 L 212.479 306.912 Z M 214.719 305.912 L 214.719 292.611 L 213.479 292.749 L 213.479 305.912 Z M 212.109 288.292 C 212.109 287.77 212.348 287.239 212.696 286.869 C 213.066 286.519 213.597 286.282 214.119 286.282 C 214.662 286.282 215.213 286.514 215.602 286.858 C 215.967 287.229 216.219 287.766 216.219 288.292 C 216.219 288.823 215.968 289.364 215.602 289.736 C 215.213 290.08 214.662 290.312 214.119 290.312 C 213.597 290.312 213.066 290.073 212.696 289.725 C 212.346 289.354 212.109 288.82 212.109 288.292 Z M 213.399 289.015 C 213.603 289.252 213.787 289.312 214.119 289.312 C 214.482 289.312 214.689 289.251 214.914 289.01 C 215.161 288.808 215.219 288.627 215.219 288.292 C 215.219 287.964 215.166 287.79 214.918 287.587 C 214.693 287.347 214.482 287.282 214.119 287.282 C 213.787 287.282 213.61 287.335 213.406 287.572 C 213.169 287.776 213.109 287.96 213.109 288.292 C 213.109 288.63 213.162 288.812 213.399 289.015 Z M 218.768 294.872 C 218.769 294.256 218.717 293.522 218.612 292.641 L 218.553 292.152 L 221.62 291.743 L 221.868 293.198 C 222.165 292.999 222.249 292.936 222.749 292.649 C 223.255 292.358 223.821 292.096 224.4 291.881 C 225 291.67 225.652 291.552 226.268 291.552 C 227.255 291.552 228.125 291.758 228.747 292.114 C 229.36 292.509 229.61 292.874 229.906 293.447 C 230.686 292.898 231.002 292.736 231.842 292.281 C 232.73 291.813 233.713 291.552 234.668 291.552 C 235.397 291.552 236.077 291.658 236.611 291.843 C 237.162 292.058 237.668 292.439 238.013 292.899 C 238.343 293.366 238.603 294.012 238.749 294.729 C 238.88 295.43 238.947 296.316 238.948 297.342 L 238.948 306.912 L 235.708 306.912 L 235.708 297.592 C 235.708 297.035 235.701 296.545 235.688 296.109 C 235.672 295.705 235.617 295.411 235.519 295.145 C 235.432 294.909 235.352 294.788 235.158 294.676 C 234.994 294.546 234.778 294.512 234.368 294.512 C 233.971 294.512 233.637 294.558 233.296 294.67 C 232.935 294.78 232.578 294.937 232.193 295.153 C 231.808 295.356 231.299 295.724 230.548 296.322 L 230.548 306.912 L 227.308 306.912 L 227.308 297.592 C 227.308 297.036 227.301 296.545 227.288 296.109 C 227.272 295.705 227.217 295.411 227.119 295.145 C 227.032 294.909 226.951 294.788 226.758 294.676 C 226.594 294.546 226.378 294.512 225.968 294.512 C 225.529 294.512 225.115 294.59 224.631 294.777 C 224.129 294.976 223.674 295.201 223.225 295.471 C 222.769 295.744 222.431 295.972 222.008 296.276 L 222.008 306.912 L 218.768 306.912 Z M 221.008 305.912 L 221.008 295.769 L 221.212 295.619 C 221.727 295.24 222.233 294.9 222.711 294.613 C 223.195 294.323 223.725 294.062 224.263 293.847 C 224.83 293.636 225.433 293.512 225.968 293.512 C 226.492 293.512 226.986 293.643 227.316 293.847 C 227.627 294.069 227.918 294.421 228.057 294.799 C 228.185 295.147 228.264 295.596 228.287 296.069 C 228.301 296.513 228.308 297.029 228.308 297.592 L 228.308 305.912 L 229.548 305.912 L 229.548 295.843 L 229.734 295.693 C 230.605 294.991 231.277 294.511 231.718 294.274 C 232.145 294.037 232.585 293.845 232.998 293.715 C 233.417 293.586 233.899 293.512 234.368 293.512 C 234.892 293.512 235.386 293.644 235.716 293.847 C 236.027 294.069 236.318 294.421 236.457 294.799 C 236.585 295.147 236.664 295.596 236.687 296.069 C 236.701 296.513 236.708 297.029 236.708 297.592 L 236.708 305.912 L 237.948 305.912 L 237.948 297.342 C 237.949 296.354 237.89 295.56 237.767 294.915 C 237.647 294.286 237.474 293.845 237.203 293.486 C 236.963 293.133 236.689 292.927 236.266 292.781 C 235.827 292.621 235.325 292.552 234.668 292.552 C 233.837 292.552 233.092 292.737 232.314 293.163 C 231.5 293.602 230.731 294.079 229.976 294.611 L 229.417 295.004 L 229.214 294.36 C 228.988 293.648 228.697 293.23 228.23 292.97 C 227.758 292.673 227.147 292.552 226.268 292.552 C 225.738 292.552 225.256 292.634 224.736 292.823 C 224.195 293.022 223.715 293.246 223.247 293.515 C 222.773 293.788 222.301 294.099 221.804 294.465 L 221.151 294.946 L 220.796 292.861 L 219.659 293.013 C 219.731 293.716 219.767 294.222 219.768 294.872 L 219.768 305.912 Z M 253.392 306.412 L 252.952 306.549 C 252.514 306.686 252.046 306.806 251.574 306.902 C 251.111 306.996 250.591 307.083 250.028 307.158 C 249.459 307.232 248.853 307.272 248.243 307.272 C 247.273 307.272 246.325 307.127 245.478 306.858 C 244.627 306.574 243.829 306.094 243.183 305.479 C 242.553 304.853 242.024 304.011 241.655 303.047 C 241.296 302.07 241.103 300.85 241.103 299.472 C 241.103 298.22 241.291 297.065 241.643 296.091 C 241.997 295.122 242.51 294.263 243.129 293.599 C 243.757 292.937 244.539 292.402 245.38 292.057 C 246.221 291.73 247.175 291.552 248.153 291.552 C 249.127 291.552 250.038 291.764 250.766 292.14 C 251.488 292.525 252.134 293.075 252.608 293.729 C 253.076 294.375 253.439 295.171 253.667 296.025 C 253.887 296.871 254.001 297.788 254.003 298.712 L 254.003 298.795 L 253.441 300.442 L 244.561 300.442 C 244.589 300.813 244.606 301.003 244.746 301.554 C 244.883 302.088 245.095 302.521 245.427 302.944 C 245.752 303.369 246.142 303.674 246.683 303.933 C 247.208 304.199 247.831 304.312 248.663 304.312 C 249.208 304.312 249.688 304.285 250.135 304.227 C 250.59 304.161 250.978 304.089 251.308 304.005 C 251.633 303.929 251.922 303.842 252.207 303.734 L 252.745 303.53 Z M 251.541 304.978 C 251.181 305.068 250.751 305.148 250.274 305.217 C 249.791 305.279 249.238 305.312 248.663 305.312 C 247.735 305.312 246.892 305.139 246.243 304.831 C 245.613 304.516 245.049 304.07 244.64 303.561 C 244.253 303.051 243.951 302.436 243.78 301.81 C 243.628 301.201 243.545 300.554 243.543 299.942 L 243.541 299.442 L 252.725 299.442 L 253.003 298.629 C 252.999 297.799 252.907 297.059 252.699 296.279 C 252.501 295.507 252.21 294.883 251.798 294.315 C 251.392 293.755 250.928 293.346 250.301 293.025 C 249.698 292.695 249.019 292.552 248.153 292.552 C 247.265 292.552 246.496 292.687 245.749 292.986 C 245.004 293.281 244.404 293.692 243.858 294.284 C 243.305 294.86 242.897 295.548 242.583 296.431 C 242.256 297.312 242.103 298.298 242.103 299.472 C 242.103 300.774 242.258 301.819 242.591 302.696 C 242.916 303.571 243.326 304.23 243.882 304.764 C 244.436 305.308 245.039 305.67 245.787 305.906 C 246.554 306.157 247.347 306.272 248.243 306.272 C 248.821 306.272 249.361 306.238 249.898 306.166 C 250.443 306.095 250.929 306.014 251.372 305.922 C 251.82 305.832 251.941 305.798 252.212 305.724 L 252.016 304.851 C 251.861 304.897 251.895 304.894 251.541 304.978 Z M 243.807 296.913 C 243.936 296.403 244.177 295.869 244.496 295.386 C 244.825 294.897 245.298 294.439 245.842 294.082 C 246.423 293.723 247.202 293.512 248.043 293.512 C 248.836 293.512 249.572 293.778 250.086 294.209 C 250.548 294.628 250.929 295.15 251.163 295.687 C 251.381 296.204 251.528 296.733 251.589 297.216 C 251.65 297.671 251.682 297.993 251.683 298.152 L 251.687 298.652 L 243.618 298.652 L 243.623 298.152 C 243.626 297.834 243.69 297.401 243.807 296.913 Z M 244.672 297.652 L 250.637 297.652 C 250.626 297.563 250.657 297.788 250.597 297.349 C 250.552 296.939 250.439 296.534 250.243 296.078 C 250.065 295.641 249.812 295.296 249.421 294.956 C 249.082 294.626 248.678 294.512 248.043 294.512 C 247.324 294.512 246.817 294.627 246.384 294.922 C 245.916 295.219 245.589 295.532 245.331 295.937 C 245.051 296.347 244.878 296.727 244.779 297.151 C 244.67 297.597 244.697 297.505 244.672 297.652 Z M 256.055 284.995 L 259.295 284.633 L 259.295 293.185 C 259.608 292.998 259.669 292.953 260.229 292.666 C 260.795 292.38 261.387 292.122 261.981 291.903 C 262.594 291.679 263.241 291.552 263.835 291.552 C 264.629 291.552 265.351 291.656 265.911 291.84 C 266.485 292.052 267.017 292.429 267.39 292.886 C 267.743 293.355 268.025 294 268.175 294.72 C 268.321 295.423 268.394 296.314 268.395 297.342 L 268.395 306.912 L 265.155 306.912 L 265.155 297.592 C 265.155 297.037 265.145 296.548 265.126 296.115 C 265.107 295.716 265.048 295.438 264.93 295.179 C 264.822 294.942 264.721 294.814 264.496 294.695 C 264.275 294.556 263.995 294.512 263.525 294.512 C 263.088 294.512 262.655 294.601 262.133 294.799 C 261.589 295.006 261.088 295.237 260.598 295.509 C 260.109 295.782 259.746 296.011 259.295 296.316 L 259.295 306.912 L 256.055 306.912 Z M 258.295 305.912 L 258.295 295.79 L 258.511 295.641 C 259.06 295.262 259.6 294.922 260.111 294.636 C 260.633 294.348 261.201 294.084 261.777 293.865 C 262.375 293.637 262.988 293.512 263.525 293.512 C 264.095 293.512 264.625 293.633 264.992 293.827 C 265.337 294.042 265.668 294.388 265.84 294.765 C 266.002 295.12 266.103 295.588 266.124 296.069 C 266.145 296.516 266.155 297.027 266.155 297.592 L 266.155 305.912 L 267.395 305.912 L 267.395 297.342 C 267.396 296.356 267.329 295.567 267.195 294.924 C 267.065 294.298 266.888 293.857 266.601 293.5 C 266.334 293.144 266.032 292.933 265.58 292.784 C 265.113 292.623 264.561 292.552 263.835 292.552 C 263.335 292.552 262.862 292.639 262.329 292.841 C 261.763 293.048 261.221 293.284 260.682 293.558 C 260.149 293.83 259.621 294.142 259.072 294.508 L 258.295 295.026 L 258.295 285.751 L 257.055 285.889 L 257.055 305.912 Z M 282.834 306.412 L 282.394 306.549 C 281.956 306.686 281.487 306.806 281.015 306.902 C 280.553 306.997 280.033 307.083 279.47 307.158 C 278.901 307.232 278.295 307.272 277.685 307.272 C 276.715 307.272 275.767 307.127 274.92 306.858 C 274.069 306.574 273.271 306.094 272.625 305.479 C 271.995 304.853 271.466 304.011 271.097 303.047 C 270.738 302.07 270.545 300.85 270.545 299.472 C 270.545 298.22 270.733 297.065 271.085 296.091 C 271.439 295.121 271.952 294.263 272.571 293.599 C 273.199 292.937 273.981 292.402 274.822 292.057 C 275.663 291.73 276.617 291.552 277.595 291.552 C 278.569 291.552 279.48 291.764 280.208 292.14 C 280.929 292.525 281.576 293.075 282.05 293.729 C 282.518 294.375 282.881 295.171 283.109 296.025 C 283.329 296.871 283.443 297.788 283.445 298.712 L 283.445 298.795 L 282.883 300.442 L 274.003 300.442 C 274.031 300.813 274.048 301.003 274.188 301.554 C 274.325 302.088 274.535 302.519 274.868 302.943 C 275.193 303.368 275.584 303.674 276.125 303.933 C 276.65 304.199 277.273 304.312 278.105 304.312 C 278.65 304.312 279.13 304.285 279.577 304.227 C 280.034 304.161 280.42 304.089 280.75 304.005 C 281.075 303.929 281.364 303.842 281.649 303.734 L 282.187 303.53 Z M 280.983 304.978 C 280.623 305.068 280.193 305.148 279.716 305.217 C 279.233 305.279 278.68 305.312 278.105 305.312 C 277.177 305.312 276.334 305.139 275.685 304.831 C 275.055 304.516 274.491 304.07 274.082 303.561 C 273.695 303.051 273.393 302.436 273.222 301.81 C 273.07 301.201 272.987 300.554 272.985 299.942 L 272.983 299.442 L 282.167 299.442 L 282.445 298.629 C 282.441 297.799 282.349 297.059 282.141 296.279 C 281.943 295.507 281.652 294.883 281.24 294.315 C 280.834 293.755 280.37 293.346 279.743 293.025 C 279.14 292.695 278.461 292.552 277.595 292.552 C 276.707 292.552 275.935 292.688 275.188 292.987 C 274.443 293.282 273.846 293.692 273.3 294.284 C 272.747 294.86 272.339 295.548 272.025 296.431 C 271.698 297.312 271.545 298.298 271.545 299.472 C 271.545 300.774 271.7 301.819 272.033 302.696 C 272.358 303.571 272.768 304.23 273.324 304.764 C 273.878 305.308 274.481 305.67 275.229 305.906 C 275.996 306.157 276.789 306.272 277.685 306.272 C 278.263 306.272 278.803 306.238 279.34 306.166 C 279.885 306.095 280.371 306.014 280.814 305.922 C 281.262 305.832 281.383 305.798 281.654 305.724 L 281.458 304.851 C 281.303 304.897 281.339 304.894 280.983 304.978 Z M 273.249 296.913 C 273.378 296.403 273.619 295.869 273.938 295.386 C 274.267 294.897 274.74 294.439 275.284 294.082 C 275.865 293.723 276.644 293.512 277.485 293.512 C 278.278 293.512 279.014 293.778 279.528 294.209 C 279.99 294.628 280.371 295.15 280.605 295.687 C 280.823 296.204 280.97 296.733 281.031 297.216 C 281.092 297.671 281.124 297.993 281.125 298.152 L 281.129 298.652 L 273.061 298.652 L 273.065 298.152 C 273.068 297.834 273.132 297.401 273.249 296.913 Z M 274.114 297.652 L 280.079 297.652 C 280.068 297.563 280.099 297.788 280.039 297.349 C 279.994 296.939 279.881 296.534 279.685 296.078 C 279.507 295.641 279.254 295.296 278.863 294.956 C 278.524 294.626 278.12 294.512 277.485 294.512 C 276.766 294.512 276.259 294.627 275.826 294.922 C 275.358 295.219 275.031 295.532 274.773 295.937 C 274.493 296.347 274.32 296.727 274.221 297.15 C 274.112 297.595 274.139 297.505 274.114 297.652 Z M 285.517 306.412 L 285.518 295.107 C 285.538 294.74 285.491 293.924 285.379 292.625 L 285.338 292.15 L 288.37 291.742 L 288.625 293.265 C 288.986 293.047 289.134 292.953 289.701 292.666 C 290.267 292.38 290.858 292.121 291.445 291.903 C 292.064 291.679 292.71 291.552 293.297 291.552 C 294.098 291.552 294.823 291.656 295.383 291.84 C 295.957 292.052 296.493 292.433 296.866 292.89 C 297.21 293.358 297.487 294.001 297.637 294.72 C 297.783 295.423 297.856 296.314 297.857 297.342 L 297.857 306.912 L 294.617 306.912 L 294.617 297.592 C 294.617 297.036 294.61 296.543 294.597 296.107 C 294.582 295.712 294.52 295.438 294.402 295.179 C 294.294 294.943 294.188 294.813 293.956 294.694 C 293.744 294.556 293.467 294.512 292.997 294.512 C 292.561 294.512 292.138 294.597 291.638 294.798 C 291.106 295.005 290.601 295.239 290.094 295.512 C 289.586 295.786 289.215 296.014 288.757 296.318 L 288.757 306.912 L 285.517 306.912 Z M 287.757 305.912 L 287.757 295.788 L 287.975 295.639 C 288.532 295.259 289.088 294.918 289.62 294.632 C 290.153 294.345 290.714 294.085 291.276 293.866 C 291.856 293.641 292.459 293.512 292.997 293.512 C 293.567 293.512 294.094 293.634 294.457 293.829 C 294.809 294.044 295.14 294.387 295.312 294.765 C 295.474 295.12 295.571 295.588 295.596 296.069 C 295.61 296.513 295.617 297.028 295.617 297.592 L 295.617 305.912 L 296.857 305.912 L 296.857 297.342 C 296.858 296.356 296.791 295.567 296.657 294.924 C 296.527 294.297 296.354 293.857 296.072 293.499 C 295.805 293.143 295.504 292.933 295.052 292.784 C 294.586 292.623 294.03 292.552 293.297 292.552 C 292.804 292.552 292.33 292.639 291.789 292.841 C 291.23 293.049 290.693 293.284 290.153 293.558 C 289.614 293.831 289.082 294.143 288.534 294.508 L 287.892 294.937 L 287.544 292.862 L 286.415 293.014 C 286.499 294.064 286.535 294.718 286.517 295.143 L 286.517 305.912 Z M 299.133 291.832 L 302.533 291.832 L 304.279 298.554 C 304.427 299.102 304.564 299.688 304.686 300.303 C 304.789 300.798 304.887 301.271 304.977 301.715 C 305.108 301.262 305.243 300.781 305.384 300.27 C 305.551 299.659 305.721 299.076 305.889 298.532 L 307.989 291.832 L 311.746 291.832 L 311.841 292.211 L 313.432 298.562 C 313.565 299.104 313.703 299.681 313.843 300.29 C 313.967 300.825 314.073 301.333 314.161 301.809 C 314.299 301.32 314.455 300.797 314.628 300.235 C 314.814 299.627 314.992 299.06 315.159 298.533 L 317.227 291.832 L 320.616 291.832 L 315.668 306.912 L 312.419 306.912 L 310.312 298.809 C 310.124 298.096 309.969 297.447 309.847 296.868 C 309.797 296.644 309.749 296.431 309.704 296.231 C 309.644 296.441 309.578 296.666 309.505 296.905 C 309.338 297.478 309.15 298.122 308.944 298.829 L 306.455 306.912 L 303.213 306.912 Z M 305.717 305.912 L 307.987 298.538 C 308.193 297.833 308.379 297.195 308.546 296.622 C 308.717 296.061 308.847 295.592 308.939 295.209 C 309.045 294.742 309.139 294.334 309.218 293.981 L 309.307 293.592 L 310.163 293.592 L 310.246 293.991 C 310.319 294.345 310.401 294.751 310.495 295.215 C 310.588 295.608 310.697 296.084 310.824 296.653 C 310.942 297.219 311.094 297.853 311.279 298.554 L 313.193 305.912 L 314.944 305.912 L 319.236 292.832 L 317.965 292.832 L 316.114 298.829 C 315.947 299.356 315.77 299.923 315.584 300.528 C 315.398 301.133 315.232 301.691 315.087 302.207 C 314.901 302.817 314.72 303.439 314.548 304.056 L 314.446 304.422 L 313.632 304.422 L 313.555 304.015 C 313.441 303.414 313.327 302.806 313.214 302.193 C 313.122 301.672 313.007 301.115 312.869 300.514 C 312.729 299.909 312.593 299.341 312.461 298.802 L 310.966 292.832 L 308.723 292.832 L 306.843 298.831 C 306.678 299.366 306.513 299.931 306.348 300.534 C 306.181 301.143 306.02 301.71 305.867 302.237 C 305.703 302.842 305.56 303.432 305.435 304.025 L 305.352 304.422 L 304.515 304.422 L 304.428 304.031 C 304.293 303.426 304.169 302.813 304.055 302.197 C 303.949 301.672 303.832 301.11 303.706 300.504 C 303.588 299.905 303.457 299.344 303.313 298.812 L 301.759 292.832 L 300.439 292.832 L 303.979 305.912 Z M 328.137 304.81 C 327.386 305.139 326.483 305.312 325.536 305.312 C 324.809 305.312 324.112 305.096 323.64 304.709 C 323.147 304.307 322.856 303.599 322.856 302.852 C 322.856 301.966 323.242 301.143 323.896 300.652 C 324.524 300.181 325.601 299.853 326.987 299.677 C 327.255 299.636 327.56 299.601 327.895 299.574 C 328.225 299.546 328.561 299.523 328.897 299.503 C 329.237 299.483 329.596 299.463 329.969 299.443 L 330.496 299.414 L 330.496 303.382 L 330.297 303.531 C 329.601 304.054 328.864 304.491 328.137 304.81 Z M 329.496 302.88 L 329.496 300.47 C 329.311 300.48 329.295 300.481 328.956 300.501 C 328.625 300.521 328.301 300.544 327.977 300.57 C 327.658 300.597 327.382 300.628 327.132 300.666 C 325.828 300.824 324.988 301.083 324.496 301.452 C 324.03 301.801 323.856 302.178 323.856 302.852 C 323.856 303.411 323.965 303.683 324.272 303.935 C 324.6 304.202 324.957 304.312 325.536 304.312 C 326.389 304.312 327.086 304.179 327.735 303.894 C 328.408 303.599 328.915 303.3 329.496 302.88 Z M 329.599 305.869 C 328.931 306.23 328.473 306.461 327.703 306.776 C 326.896 307.097 325.985 307.272 325.066 307.272 C 323.74 307.272 322.588 306.901 321.768 306.248 C 320.953 305.534 320.476 304.339 320.476 302.852 C 320.476 302.054 320.707 301.272 321.125 300.668 C 321.529 300.083 322.104 299.559 322.751 299.162 C 323.39 298.786 324.138 298.475 324.936 298.259 C 325.727 298.046 326.549 297.91 327.369 297.854 C 327.714 297.813 328.158 297.78 328.711 297.753 C 329.25 297.726 329.269 297.724 329.492 297.712 C 329.485 297.258 329.477 296.973 329.438 296.471 C 329.401 296.001 329.319 295.657 329.152 295.341 C 329.01 295.043 328.845 294.878 328.547 294.736 C 328.25 294.574 327.845 294.512 327.216 294.512 C 326.69 294.512 326.202 294.54 325.719 294.598 C 325.219 294.664 324.785 294.731 324.4 294.803 C 323.945 294.894 323.537 294.992 323.154 295.103 L 322.646 295.249 L 321.979 292.322 L 322.458 292.206 C 322.934 292.091 323.449 291.985 323.995 291.89 C 324.474 291.795 325.035 291.713 325.658 291.644 C 326.291 291.583 326.978 291.552 327.696 291.552 C 328.694 291.552 329.575 291.713 330.221 292.021 C 330.863 292.327 331.422 292.789 331.787 293.318 C 332.144 293.834 332.401 294.466 332.535 295.12 C 332.666 295.753 332.735 296.445 332.736 297.142 L 332.736 303.862 C 332.736 304.119 332.739 304.39 332.746 304.68 C 332.752 304.955 332.772 305.226 332.804 305.494 C 332.831 305.772 332.86 306.059 332.893 306.357 L 332.948 306.858 L 329.837 307.177 Z M 331.846 305.966 C 331.833 305.84 331.836 305.875 331.809 305.595 C 331.775 305.305 331.754 305.003 331.746 304.704 C 331.739 304.408 331.736 304.125 331.736 303.862 L 331.736 297.142 C 331.737 296.494 331.679 295.905 331.557 295.324 C 331.451 294.764 331.262 294.316 330.965 293.886 C 330.676 293.469 330.323 293.177 329.791 292.923 C 329.263 292.672 328.604 292.552 327.696 292.552 C 327 292.552 326.364 292.58 325.757 292.639 C 325.155 292.705 324.638 292.781 324.184 292.872 C 323.652 292.964 323.49 292.999 323.174 293.068 L 323.388 294.005 C 323.649 293.94 323.731 293.917 324.208 293.822 C 324.609 293.747 325.078 293.674 325.591 293.606 C 326.106 293.545 326.662 293.512 327.216 293.512 C 327.933 293.512 328.567 293.636 329.003 293.847 C 329.425 294.079 329.808 294.46 330.04 294.882 C 330.246 295.3 330.391 295.837 330.435 296.393 C 330.475 296.917 330.496 297.52 330.496 298.182 L 330.496 298.65 L 330.029 298.681 C 329.726 298.701 329.302 298.724 328.761 298.751 C 328.22 298.778 327.798 298.81 327.476 298.848 C 326.7 298.899 325.939 299.024 325.196 299.225 C 324.46 299.423 323.836 299.678 323.261 300.022 C 322.694 300.359 322.289 300.741 321.947 301.236 C 321.619 301.712 321.476 302.196 321.476 302.852 C 321.476 304.165 321.739 304.975 322.403 305.475 C 323.05 306.036 323.886 306.272 325.066 306.272 C 325.893 306.272 326.616 306.141 327.329 305.848 C 328.065 305.549 328.85 305.159 329.716 304.659 L 330.331 304.304 L 330.655 306.088 Z M 335.677 284.995 L 338.917 284.633 L 338.917 306.912 L 335.677 306.912 Z M 337.917 305.912 L 337.917 285.751 L 336.677 285.889 L 336.677 305.912 Z" style="fill: none;" transform="matrix(1, 0, 0, 1, 0, 0)"/>
  </g>
</svg>